<?xml version="1.0" encoding="iso-8859-1"?>
<!-- Generator: Adobe Illustrator 22.0.0, SVG Export Plug-In . SVG Version: 6.00 Build 0)  -->
<svg xmlns="http://www.w3.org/2000/svg" xmlns:xlink="http://www.w3.org/1999/xlink" version="1.1" id="Layer_1_1_" x="0px" y="0px" viewBox="0 0 64 64" style="enable-background:new 0 0 64 64;" xml:space="preserve" width="512" height="512">
<g>
	<g>
		<rect x="22" y="8" style="fill:#F0BC5E;" width="20" height="22"/>
	</g>
	<path d="M55,55c0-2.972-4.006-5.468-11-6.884V47h2c2.757,0,5-2.243,5-5v-9c1.654,0,3-1.346,3-3s-1.346-3-3-3h-2V12   c0-2.757-2.243-5-5-5h-1.184C42.928,6.686,43,6.352,43,6V4c0-1.654-1.346-3-3-3H24c-1.654,0-3,1.346-3,3v2   c0,0.352,0.072,0.686,0.184,1H20c-2.757,0-5,2.243-5,5v15h-2c-1.654,0-3,1.346-3,3s1.346,3,3,3v9c0,2.757,2.243,5,5,5h2v1.116   C13.006,49.532,9,52.028,9,55c0,3.088,4.434,5.696,11.904,7.057L21.12,63H42.88l0.216-0.943C50.566,60.696,55,58.088,55,55z M20,57   v-2h24v2H20z M38,47v6H26v-6H38z M42,53h-2v-6h2V53z M52,30c0,0.551-0.449,1-1,1h-6c-0.551,0-1-0.449-1-1s0.449-1,1-1h6   C51.551,29,52,29.449,52,30z M19,38c0-0.551,0.449-1,1-1h24c0.551,0,1,0.449,1,1v3H19V38z M45,35.184   C44.686,35.072,44.352,35,44,35H20c-0.352,0-0.686,0.072-1,0.184V33c1.302,0,2.402-0.839,2.816-2h20.369   c0.414,1.161,1.514,2,2.816,2V35.184z M29,9v20h-3V9H29z M35,29V9h3v20H35z M33,29h-2V9h2V29z M47,12v15h-2   c-1.302,0-2.402,0.839-2.816,2H40V9h4C45.654,9,47,10.346,47,12z M23,6V4c0-0.551,0.449-1,1-1h16c0.551,0,1,0.449,1,1v2   c0,0.551-0.449,1-1,1H24C23.449,7,23,6.551,23,6z M17,12c0-1.654,1.346-3,3-3h4v20h-2.184c-0.414-1.161-1.514-2-2.816-2h-2V12z    M12,30c0-0.551,0.449-1,1-1h6c0.551,0,1,0.449,1,1s-0.449,1-1,1h-6C12.449,31,12,30.551,12,30z M15,42v-9h2v10h30V33h2v9   c0,1.654-1.346,3-3,3H18C16.346,45,15,43.654,15,42z M24,47v6h-2v-6H24z M11,55c0-1.49,2.798-3.527,9-4.843V53h-2v6h2.203   l0.213,0.929C13.968,58.63,11,56.522,11,55z M22.713,61l-0.458-2h19.49l-0.458,2H22.713z M43.584,59.929L43.797,59H46v-6h-2v-2.843   c6.202,1.316,9,3.352,9,4.843C53,56.522,50.032,58.63,43.584,59.929z"/>
</g>
</svg>
