<?xml version="1.0" encoding="iso-8859-1"?>
<!-- Generator: Adobe Illustrator 22.0.0, SVG Export Plug-In . SVG Version: 6.00 Build 0)  -->
<svg xmlns="http://www.w3.org/2000/svg" xmlns:xlink="http://www.w3.org/1999/xlink" version="1.1" id="Layer_1_1_" x="0px" y="0px" viewBox="0 0 64 64" style="enable-background:new 0 0 64 64;" xml:space="preserve" width="512" height="512">
<g>
	<g>
		<polygon style="fill:#F0BC5E;" points="13,46 21,52 13,52   "/>
	</g>
	<g>
		<polygon style="fill:#F0BC5E;" points="13,39 30,52 33,52 33,48 13,32   "/>
	</g>
	<g>
		<polygon style="fill:#F0BC5E;" points="33,41 13,25 13,18 33,34   "/>
	</g>
	<g>
		<polygon style="fill:#F0BC5E;" points="14,12 33,27 33,20 23,12   "/>
	</g>
	<path d="M52,7h-6c-1.654,0-3,1.346-3,3v7h-9v-4h3V7h-3V6c0-2.757-2.243-5-5-5H17c-2.757,0-5,2.243-5,5v1H9v6h3v38H9v6h3v1   c0,2.757,2.243,5,5,5h12c2.757,0,5-2.243,5-5v-1h3v-6h-3v-4h9v7c0,1.654,1.346,3,3,3h6c1.654,0,3-1.346,3-3V10   C55,8.346,53.654,7,52,7z M43,19v2h-9v-2H43z M34,23h9v18h-9V23z M14,6c0-1.654,1.346-3,3-3h12c1.654,0,3,1.346,3,3v1H14V6z M11,9   h24v2H11V9z M32,58c0,1.654-1.346,3-3,3H17c-1.654,0-3-1.346-3-3v-1h18V58z M35,55H11v-2h24V55z M14,51V13h18v38H14z M34,45v-2h9v2   H34z M45,54V10c0-0.551,0.449-1,1-1h2v46h-2C45.449,55,45,54.551,45,54z M53,54c0,0.551-0.449,1-1,1h-2V9h2c0.551,0,1,0.449,1,1V54   z"/>
</g>
</svg>
