<?xml version="1.0" encoding="iso-8859-1"?>
<!-- Generator: Adobe Illustrator 22.0.0, SVG Export Plug-In . SVG Version: 6.00 Build 0)  -->
<svg xmlns="http://www.w3.org/2000/svg" xmlns:xlink="http://www.w3.org/1999/xlink" version="1.1" id="Layer_1_1_" x="0px" y="0px" viewBox="0 0 64 64" style="enable-background:new 0 0 64 64;" xml:space="preserve" width="512" height="512">
<g>
	<g>
		<path style="fill:#F0BC5E;" d="M52.779,18.897c-2.311-0.356-4.297-1.695-5.51-3.584L37,21v2l10.269,5.687    c1.209-1.883,3.186-3.219,5.488-3.58c0.16-1.05,0.243-2.115,0.243-3.169C53,20.92,52.924,19.897,52.779,18.897z"/>
	</g>
	<g>
		<path style="fill:#F0BC5E;" d="M46,33l-9-5l-7-2l-18.765-1.328l0.001,0.332l0.012,0.15c0.371,2.379,1.141,4.657,2.288,6.772    l16.108,29.672C30.114,62.463,31.017,63,32,63s1.886-0.537,2.356-1.401l13.061-24.071C46.529,36.239,46,34.684,46,33z"/>
	</g>
	<g>
		<path style="fill:#F0BC5E;" d="M30,18l7-2l9-5c0-1.367,0.344-2.653,0.949-3.778C42.985,3.211,37.705,1,32.062,1h-0.125    C21.633,1,12.729,8.676,11.226,18.854l-0.011,0.075l0.001,0.401L30,18z"/>
	</g>
	<g>
		<rect x="35" y="41" width="2" height="2"/>
		<rect x="31" y="41" width="2" height="2"/>
		<rect x="27" y="41" width="2" height="2"/>
		<path d="M54,16c2.757,0,5-2.243,5-5s-2.243-5-5-5s-5,2.243-5,5S51.243,16,54,16z M54,8c1.654,0,3,1.346,3,3s-1.346,3-3,3    s-3-1.346-3-3S52.346,8,54,8z"/>
		<path d="M54,28c-2.757,0-5,2.243-5,5s2.243,5,5,5s5-2.243,5-5S56.757,28,54,28z M54,36c-1.654,0-3-1.346-3-3s1.346-3,3-3    s3,1.346,3,3S55.654,36,54,36z"/>
		<rect x="33" y="21" width="2" height="2"/>
		<path d="M54,24c-2.76,0-5.322,1.249-7.023,3.382l-0.823-0.456C46.705,25.346,47,23.695,47,22c0-1.695-0.295-3.346-0.846-4.926    l0.824-0.456c2.035,2.543,5.309,3.808,8.594,3.248c3.894-0.663,6.925-3.88,7.37-7.822c0.289-2.565-0.522-5.13-2.229-7.039    C59.007,3.095,56.56,2,54,2c-4.761,0-8.671,3.716-8.98,8.4l-2.212,1.229C39.984,8.686,36.108,7,32,7    c-6.768,0-12.583,4.439-14.413,10.876L3.913,18.844C2.279,18.975,1,20.361,1,22s1.279,3.025,2.923,3.157l13.665,0.967    C19.417,32.561,25.232,37,32,37c4.108,0,7.984-1.686,10.808-4.63l2.212,1.229c0.163,2.471,1.331,4.758,3.259,6.348    c1.624,1.339,3.647,2.05,5.738,2.05c0.59,0,1.186-0.057,1.778-0.172c3.521-0.684,6.347-3.509,7.03-7.029    c0.523-2.695-0.161-5.435-1.878-7.518C59.229,25.195,56.697,24,54,24z M45,22c0,1.354-0.215,2.674-0.62,3.944l-6.42-3.555    C37.973,22.259,38,22.133,38,22s-0.027-0.259-0.039-0.389l6.42-3.555C44.785,19.326,45,20.647,45,22z M47,11.588V11    c0-3.86,3.141-7,7-7c1.991,0,3.895,0.852,5.222,2.338c1.346,1.506,1.961,3.453,1.731,5.482c-0.34,3.014-2.745,5.568-5.718,6.075    c-2.803,0.475-5.601-0.748-7.124-3.122l-0.507-0.789l-10.336,5.724C36.544,18.678,35.352,18,34,18    c-0.213,0-0.419,0.031-0.623,0.063l3.898-1.102L47,11.588z M36,22c0,1.103-0.897,2-2,2s-2-0.897-2-2s0.897-2,2-2S36,20.897,36,22z     M32,9c3.385,0,6.596,1.309,9.008,3.629l-4.392,2.44l-6.79,1.94l-10.099,0.715C21.52,12.527,26.383,9,32,9z M4.063,20.838    l26.007-1.84l2.329-0.658c-1.111,0.488-1.947,1.468-2.257,2.661H3.588C3.732,20.915,3.889,20.852,4.063,20.838z M3.591,23h26.551    c0.307,1.182,1.133,2.154,2.23,2.646l-2.097-0.607L4.073,23.163C3.896,23.149,3.737,23.085,3.591,23z M32,35    c-5.617,0-10.48-3.527-12.274-8.724l10.099,0.715l6.79,1.94l4.393,2.44C38.596,33.69,35.385,35,32,35z M60.862,34.415    c-0.53,2.728-2.72,4.917-5.448,5.448c-2.104,0.409-4.243-0.122-5.863-1.458C47.93,37.068,47,35.098,47,33v-0.588l-9.515-5.286    l-4.107-1.189C33.583,25.969,33.787,26,34,26c1.352,0,2.544-0.678,3.269-1.708l10.336,5.724l0.507-0.789    C49.408,27.207,51.609,26,54,26c2.099,0,4.068,0.93,5.404,2.55C60.74,30.17,61.271,32.308,60.862,34.415z"/>
	</g>
</g>
</svg>
