<?xml version="1.0" encoding="iso-8859-1"?>
<!-- Generator: Adobe Illustrator 22.0.0, SVG Export Plug-In . SVG Version: 6.00 Build 0)  -->
<svg xmlns="http://www.w3.org/2000/svg" xmlns:xlink="http://www.w3.org/1999/xlink" version="1.1" id="Layer_1_1_" x="0px" y="0px" viewBox="0 0 64 64" style="enable-background:new 0 0 64 64;" xml:space="preserve" width="512" height="512">
<g>
	<g>
		<path style="fill:#F0BC5E;" d="M24,21c0-1.657,1.343-3,3-3H1v6h26C25.343,24,24,22.657,24,21z"/>
	</g>
	<g>
		<path style="fill:#F0BC5E;" d="M37,18c1.657,0,3,1.343,3,3s-1.343,3-3,3h26v-6H37z"/>
	</g>
	<g>
		<path style="fill:#F0BC5E;" d="M34,21c0-1.657,1.343-3,3-3H27c1.657,0,3,1.343,3,3s-1.343,3-3,3h10C35.343,24,34,22.657,34,21z"/>
	</g>
	<g>
		<rect x="23" y="39" style="fill:#F0BC5E;" width="18" height="23"/>
	</g>
	<g>
		<path d="M38.105,1h-2.782L32,9.307L28.677,1h-2.782l0.4,4H5v13h2V7h19.495l0.2,2H9v9h2v-7h15.895l0.145,1.455l2.006,2.006    c0.072,0.461,0.242,0.888,0.499,1.255l-1.115,1.56C27.985,17.104,27.506,17,27,17c-2.206,0-4,1.794-4,4s1.794,4,4,4s4-1.794,4-4    c0-0.975-0.365-1.859-0.947-2.553l1.125-1.575C31.441,16.947,31.713,17,32,17s0.559-0.053,0.822-0.129l1.125,1.575    C33.365,19.141,33,20.025,33,21c0,2.206,1.794,4,4,4s4-1.794,4-4s-1.794-4-4-4c-0.506,0-0.985,0.104-1.431,0.276l-1.115-1.56    c0.257-0.367,0.427-0.794,0.499-1.255l2.006-2.006L37.105,11H53v7h2V9H37.305l0.2-2H57v11h2V5H37.705L38.105,1z M28.366,5.607    l2.29,5.726c-0.411,0.208-0.766,0.504-1.041,0.868l-0.655-0.655L28.366,5.607z M27,23c-1.103,0-2-0.897-2-2s0.897-2,2-2    s2,0.897,2,2S28.103,23,27,23z M31,14c0-0.551,0.449-1,1-1s1,0.449,1,1s-0.449,1-1,1S31,14.551,31,14z M39,21c0,1.103-0.897,2-2,2    s-2-0.897-2-2s0.897-2,2-2S39,19.897,39,21z M35.041,11.545l-0.655,0.655c-0.276-0.364-0.63-0.66-1.041-0.868l2.29-5.726    L35.041,11.545z"/>
		<polygon points="57,24 55,24 55,61 45,61 45,24 43,24 43,61 33,61 33,39 31,39 31,61 21,61 21,24 19,24 19,61 9,61 9,24 7,24     7,61 5,61 5,63 59,63 59,61 57,61   "/>
		<path d="M41,27H23v6h18V27z M39,30.586L37.414,29H39V30.586z M32.414,29h2.172l2,2h-2.172L32.414,29z M31.586,31h-2.172l-2-2    h2.172L31.586,31z M25,29.414L26.586,31H25V29.414z"/>
		<rect x="35" y="49" width="2" height="2"/>
		<rect x="27" y="49" width="2" height="2"/>
		<path d="M53,53V39c0-1.654-1.346-3-3-3s-3,1.346-3,3v14c0,1.654,1.346,3,3,3S53,54.654,53,53z M51,47v2h-2v-2H51z M49,45v-2h2v2    H49z M50,38c0.551,0,1,0.449,1,1v2h-2v-2C49,38.449,49.449,38,50,38z M49,53v-2h2v2c0,0.551-0.449,1-1,1S49,53.551,49,53z"/>
		<rect x="1" y="61" width="2" height="2"/>
		<rect x="61" y="61" width="2" height="2"/>
	</g>
</g>
</svg>
