<?xml version="1.0" encoding="iso-8859-1"?>
<!-- Generator: Adobe Illustrator 22.0.0, SVG Export Plug-In . SVG Version: 6.00 Build 0)  -->
<svg xmlns="http://www.w3.org/2000/svg" xmlns:xlink="http://www.w3.org/1999/xlink" version="1.1" id="Layer_1_1_" x="0px" y="0px" viewBox="0 0 64 64" style="enable-background:new 0 0 64 64;" xml:space="preserve" width="512" height="512">
<g>
	<g>
		<rect x="18" y="24" style="fill:#F0BC5E;" width="6" height="6"/>
	</g>
	<g>
		<rect x="18" y="47" style="fill:#F0BC5E;" width="6" height="6"/>
	</g>
	<g>
		<g>
			<path style="fill:#F0BC5E;" d="M56,63H46c-1.103,0-2-0.897-2-2v-1h-3c-1.103,0-2-0.897-2-2V30c0-1.103,0.897-2,2-2h3v-1     c0-1.103,0.897-2,2-2h10c1.103,0,2,0.897,2,2v1h3c1.103,0,2,0.897,2,2v28c0,1.103-0.897,2-2,2h-3v1C58,62.103,57.103,63,56,63z"/>
		</g>
	</g>
	<g>
		<path d="M48,33h2v3h-2v2h2v3.184c-1.161,0.414-2,1.514-2,2.816s0.839,2.402,2,2.816V50h-2v2h2v3h-2v2h6v-2h-2v-3h2v-2h-2v-3.184    c1.161-0.414,2-1.514,2-2.816s-0.839-2.402-2-2.816V38h2v-2h-2v-3h2v-2h-6V33z M51,45c-0.552,0-1-0.448-1-1s0.448-1,1-1    s1,0.448,1,1S51.552,45,51,45z"/>
		<rect x="43" y="34" width="2" height="2"/>
		<rect x="43" y="38" width="2" height="12"/>
		<rect x="43" y="52" width="2" height="2"/>
		<rect x="57" y="34" width="2" height="2"/>
		<rect x="57" y="38" width="2" height="12"/>
		<rect x="57" y="52" width="2" height="2"/>
		<path d="M38,1H4C2.346,1,1,2.346,1,4v5v2v1v2c0,1.654,1.346,3,3,3h5v1c0,1.654,1.346,3,3,3h5v40c0,1.103,0.897,2,2,2h4    c1.103,0,2-0.897,2-2V21h5c1.654,0,3-1.346,3-3v-1h5c1.654,0,3-1.346,3-3v-2v-1V9V4C41,2.346,39.654,1,38,1z M4,3h34    c0.552,0,1,0.448,1,1v2.184C38.686,6.072,38.352,6,38,6H4C3.648,6,3.314,6.072,3,6.184V4C3,3.448,3.448,3,4,3z M39,10.017    c-0.247-0.016-0.496-0.021-0.743-0.018l-6.257,0V8h6c0.552,0,1,0.448,1,1V10.017z M4,10L3.743,9.999    c-0.248-0.004-0.497,0-0.743,0.016V9c0-0.552,0.448-1,1-1h7v2L4,10z M13,8h7v2l-7,0V8z M22,8h8v1.999l-8,0V8z M19,28h4v21h-4V28z     M19,61V51h4v10H19z M23,26h-4v-5h4V26z M31,18c0,0.552-0.448,1-1,1H12c-0.552,0-1-0.448-1-1v-1h20V18z M38,15H4    c-0.552,0-1-0.448-1-1v-1.982c0.188-0.022,0.502-0.021,0.728-0.019L38,12l0.272-0.001c0.225-0.002,0.539-0.004,0.728,0.019V14    C39,14.552,38.552,15,38,15z"/>
	</g>
</g>
</svg>
