<?xml version="1.0" encoding="iso-8859-1"?>
<!-- Generator: Adobe Illustrator 22.0.0, SVG Export Plug-In . SVG Version: 6.00 Build 0)  -->
<svg xmlns="http://www.w3.org/2000/svg" xmlns:xlink="http://www.w3.org/1999/xlink" version="1.1" id="Layer_1_1_" x="0px" y="0px" viewBox="0 0 64 64" style="enable-background:new 0 0 64 64;" xml:space="preserve" width="512" height="512">
<g>
	<g>
		<g>
			<path style="fill:#F0BC5E;" d="M42,58H22V22h20V58z"/>
		</g>
	</g>
	<g>
		<path d="M42,16h-2v-4h-5V8h9V3.133L29.316,1.035C29.152,1.012,28.987,1,28.822,1H26.5C24.57,1,23,2.57,23,4.5S24.57,8,26.5,8H29v4    h-5v4h-2c-2.757,0-5,2.243-5,5v37c0,2.757,2.243,5,5,5h20c2.757,0,5-2.243,5-5V21C47,18.243,44.757,16,42,16z M25,4.5    C25,3.673,25.673,3,26.5,3h2.322c0.071,0,0.143,0.005,0.212,0.015L42,4.867V6H26.5C25.673,6,25,5.327,25,4.5z M31,8h2v4h-2V8z     M26,14h12v2H26V14z M45,58c0,1.654-1.346,3-3,3H22c-1.654,0-3-1.346-3-3V21c0-1.654,1.346-3,3-3h20c1.654,0,3,1.346,3,3V58z"/>
		<path d="M32,37c2.206,0,4-1.794,4-4c0-0.86-0.284-1.713-0.8-2.4L32,26.333L28.8,30.6C28.284,31.287,28,32.14,28,33    C28,35.206,29.794,37,32,37z M30.4,31.8l1.6-2.133l1.6,2.134C33.858,32.144,34,32.57,34,33c0,1.103-0.897,2-2,2s-2-0.897-2-2    C30,32.57,30.142,32.144,30.4,31.8z"/>
		<rect x="26" y="39" width="12" height="2"/>
		<rect x="26" y="47" width="12" height="2"/>
		<rect x="31" y="43" width="2" height="2"/>
		<rect x="35" y="43" width="2" height="2"/>
		<rect x="27" y="43" width="2" height="2"/>
		<rect x="26" y="51" width="12" height="2"/>
	</g>
</g>
</svg>
