<?xml version="1.0" encoding="iso-8859-1"?>
<!-- Generator: Adobe Illustrator 22.0.0, SVG Export Plug-In . SVG Version: 6.00 Build 0)  -->
<svg xmlns="http://www.w3.org/2000/svg" xmlns:xlink="http://www.w3.org/1999/xlink" version="1.1" id="Layer_1_1_" x="0px" y="0px" viewBox="0 0 64 64" style="enable-background:new 0 0 64 64;" xml:space="preserve" width="512" height="512">
<g>
	<g>
		<path style="fill:#F0BC5E;" d="M40.172,34.828l1.657-1.657c0.75-0.75,1.172-1.768,1.172-2.828V23h-7.586    c-0.526,0-1.042,0.214-1.414,0.586L31.586,26C31.214,26.372,31,26.888,31,27.414V47c0,1.103,0.897,2,2,2h6V37.657    C39,36.596,39.421,35.579,40.172,34.828z"/>
	</g>
	<g>
		<path d="M42.974,15H43V4c0-1.654-1.346-3-3-3H24c-1.654,0-3,1.346-3,3v11h0.026c-0.442,0.584-0.773,1.257-0.924,2H19    c-1.654,0-3,1.346-3,3v8c0,1.654,1.346,3,3,3h1.064c0.142,1.085,0.614,2.092,1.4,2.878l1.657,1.657    C23.68,36.094,24,36.867,24,37.657V52c0,0.883,0.391,1.67,1,2.22V56c0,2.414,1.721,4.434,4,4.899V61c0,1.103,0.897,2,2,2h2    c1.103,0,2-0.897,2-2v-0.101c2.279-0.465,4-2.484,4-4.899v-1.78c0.609-0.549,1-1.337,1-2.22V37.657c0-0.79,0.32-1.562,0.878-2.121    l1.657-1.657C43.48,32.934,44,31.679,44,30.343V18C44,16.87,43.609,15.838,42.974,15z M41,4v9.424    c-0.042-0.018-0.084-0.035-0.126-0.052L39.781,9H39V3h1C40.551,3,41,3.449,41,4z M35,9V3h2v6H35z M33,9h-2V3h2V9z M29,9h-2V3h2V9z     M25.781,11h12.438l0.5,2H25.281L25.781,11z M24,3h1v6h-0.781l-1.093,4.372c-0.042,0.017-0.084,0.034-0.126,0.052V4    C23,3.449,23.449,3,24,3z M18,28v-8c0-0.551,0.449-1,1-1h1v10h-1C18.449,29,18,28.551,18,28z M27,56v-1h2v3.816    C27.839,58.402,27,57.302,27,56z M31,61v-6h2v6H31z M37,56c0,1.302-0.839,2.402-2,2.816V55h2V56z M39.464,34.122    c-0.268,0.268-0.492,0.566-0.689,0.878H35v2h3.064C38.036,37.218,38,37.434,38,37.657V39h-3v2h3v2h-3v2h3v7c0,0.551-0.449,1-1,1    H27c-0.551,0-1-0.449-1-1V37.657c0-1.335-0.52-2.591-1.464-3.535l-1.657-1.657C22.32,31.906,22,31.133,22,30.343V18    c0-1.654,1.346-3,3-3h14c1.654,0,3,1.346,3,3v9h-7v2h7v1.343c0,0.222-0.031,0.441-0.08,0.657H35v2h5.586L39.464,34.122z"/>
		<rect x="25" y="18" width="2" height="2"/>
		<rect x="37" y="18" width="2" height="2"/>
	</g>
</g>
</svg>
