<?xml version="1.0" encoding="iso-8859-1"?>
<!-- Generator: Adobe Illustrator 22.0.0, SVG Export Plug-In . SVG Version: 6.00 Build 0)  -->
<svg xmlns="http://www.w3.org/2000/svg" xmlns:xlink="http://www.w3.org/1999/xlink" version="1.1" id="Layer_1_1_" x="0px" y="0px" viewBox="0 0 64 64" style="enable-background:new 0 0 64 64;" xml:space="preserve" width="512" height="512">
<g>
	<g>
		<g fill="#f1f1f1">
			<rect x="12" y="7" width="15" height="2"/>
		</g>
		<g fill="#f1f1f1">
			<rect x="12" y="11" width="15" height="2"/>
		</g>
		<g fill="#f1f1f1">
			<rect x="12" y="15" width="15" height="2"/>
		</g>
		<g fill="#f1f1f1">
			<rect x="12" y="19" width="15" height="2"/>
		</g>
		<g fill="#f1f1f1">
			<rect x="12" y="23" width="15" height="2"/>
		</g>
		<g fill="#f1f1f1">
			<rect x="12" y="27" width="15" height="2"/>
		</g>
		<g fill="#f1f1f1">
			<rect x="12" y="31" width="15" height="2"/>
		</g>
		<g fill="#f1f1f1">
			<rect x="12" y="35" width="15" height="2"/>
		</g>
		<g fill="#f1f1f1">
			<rect x="12" y="39" width="15" height="2"/>
		</g>
		<g fill="#f1f1f1">
			<rect x="12" y="43" width="15" height="2"/>
		</g>
		<g fill="#f1f1f1">
			<rect x="12" y="47" width="15" height="2"/>
		</g>
		<g fill="#f1f1f1">
			<rect x="12" y="51" width="15" height="2"/>
		</g>
		<g fill="#f1f1f1">
			<rect x="12" y="55" width="15" height="2"/>
		</g>
		<g fill="#f1f1f1">
			<g>
				<path style="fill:#F0BC5E;" d="M29,63H12v-3.809l13.209-2.83C25.668,56.263,26,55.852,26,55.383V8.617      c0-0.469-0.332-0.88-0.79-0.979L12,4.809V1h17c2.757,0,5,2.243,5,5v52C34,60.757,31.757,63,29,63z"/>
			</g>
		</g>
	</g>
	<g fill="#f1f1f1">
		<rect x="38" y="7" width="10" height="2"/>
	</g>
	<g fill="#f1f1f1">
		<rect x="38" y="11" width="10" height="2"/>
	</g>
	<g fill="#f1f1f1">
		<rect x="38" y="15" width="10" height="2"/>
	</g>
	<g fill="#f1f1f1">
		<rect x="38" y="19" width="10" height="2"/>
	</g>
	<g fill="#f1f1f1">
		<rect x="38" y="23" width="10" height="2"/>
	</g>
	<g fill="#f1f1f1">
		<rect x="38" y="27" width="10" height="2"/>
	</g>
	<g fill="#f1f1f1">
		<g>
			<path style="fill:#F0BC5E;" d="M51.446,63.035c-1.339,0-2.452-1.031-2.549-2.372L47.068,35H41c-1.654,0-3-1.346-3-3v-0.896l9-1     V5.896l-9-1V4c0-1.654,1.346-3,3-3h10c1.654,0,3,1.346,3,3v56.48c0,1.377-1.119,2.522-2.495,2.555     C51.485,63.035,51.466,63.035,51.446,63.035z"/>
		</g>
	</g>
</g>
</svg>
