<?xml version="1.0" encoding="iso-8859-1"?>
<!-- Generator: Adobe Illustrator 22.0.0, SVG Export Plug-In . SVG Version: 6.00 Build 0)  -->
<svg xmlns="http://www.w3.org/2000/svg" xmlns:xlink="http://www.w3.org/1999/xlink" version="1.1" id="Layer_1_1_" x="0px" y="0px" viewBox="0 0 64 64" style="enable-background:new 0 0 64 64;" xml:space="preserve" width="512" height="512">
<g>
	<g>
		<g>
			<path style="fill:#F0BC5E;" d="M38,49H26c-2.757,0-5-2.243-5-5V31h22v13C43,46.757,40.757,49,38,49z"/>
		</g>
	</g>
	<g>
		<rect x="21" y="35" width="22" height="2"/>
		<rect x="35" y="19" width="2" height="2"/>
		<rect x="27" y="19" width="2" height="2"/>
		<path d="M58.005,59.441c-1.649-1.871-1.179-5.581-0.635-9.877C57.68,47.122,58,44.597,58,42c0-9.503-7.561-10.797-9.534-10.973    C44.946,27.378,43,22.599,43,17.515V13h-2V6c0-2.757-2.243-5-5-5h-8c-2.757,0-5,2.243-5,5v7h-2v4.515    c0,5.084-1.946,9.863-5.466,13.513C13.561,31.203,6,32.497,6,42c0,2.597,0.32,5.122,0.629,7.564    c0.544,4.296,1.014,8.006-0.635,9.877C5.07,60.49,3.437,61,1,61v2c3.044,0,5.169-0.731,6.495-2.236    c2.246-2.549,1.724-6.674,1.118-11.451C8.312,46.933,8,44.471,8,42c0-7.041,4.849-8.57,7-8.903V58c0,2.757,2.243,5,5,5h24    c2.757,0,5-2.243,5-5V33.091c2.149,0.322,7,1.827,7,8.909c0,2.471-0.312,4.933-0.613,7.313c-0.605,4.777-1.128,8.902,1.118,11.451    C57.831,62.269,59.956,63,63,63v-2C60.563,61,58.93,60.49,58.005,59.441z M39,6v7h-2V6c0-1.13-0.391-2.162-1.026-3H36    C37.654,3,39,4.346,39,6z M32,3c1.302,0,2.402,0.839,2.816,2h-5.631C29.598,3.839,30.698,3,32,3z M29,7h6v6h-6V7z M25,6    c0-1.654,1.346-3,3-3h0.026C27.391,3.838,27,4.87,27,6v7h-2V6z M44,59c1.13,0,2.162-0.391,3-1.026V58c0,1.654-1.346,3-3,3H20    c-1.654,0-3-1.346-3-3v-0.026C17.838,58.609,18.87,59,20,59h2v-2h-2c-1.654,0-3-1.346-3-3V32.409c3.873-4.022,6-9.295,6-14.894V15    h4v2h2v-2h6v2h2v-2h4v2.515c0,5.599,2.127,10.872,6,14.894V54c0,1.654-1.346,3-3,3h-2v2H44z"/>
		<rect x="36" y="57" width="4" height="2"/>
		<rect x="30" y="57" width="4" height="2"/>
		<rect x="24" y="57" width="4" height="2"/>
	</g>
</g>
</svg>
