<?xml version="1.0" encoding="iso-8859-1"?>
<!-- Generator: Adobe Illustrator 22.0.0, SVG Export Plug-In . SVG Version: 6.00 Build 0)  -->
<svg xmlns="http://www.w3.org/2000/svg" xmlns:xlink="http://www.w3.org/1999/xlink" version="1.1" id="Layer_1_1_" x="0px" y="0px" viewBox="0 0 64 64" style="enable-background:new 0 0 64 64;" xml:space="preserve" width="512" height="512">
<g>
	<g>
		<path style="fill:#F0BC5E;" d="M26,19v32c0,1.654,1.346,3,3,3h6c1.654,0,3-1.346,3-3V19H26z"/>
	</g>
	<g>
		<path d="M47,6.008V1h-6v8h-2V1h-6v8h-2V1h-6v8h-2V1h-6v5.008c-1.109,0.045-2,0.954-2,2.074V17c0,1.302,0.839,2.402,2,2.816v6.356    c0,0.801,0.312,1.555,0.879,2.122l2.881,2.881c0.172,0.172,0.275,0.4,0.291,0.643l1.83,28.377C22.983,61.768,24.299,63,25.875,63    h12.25c1.576,0,2.892-1.232,2.994-2.807l1.83-28.376c0.016-0.243,0.119-0.471,0.291-0.643l2.881-2.881    C46.688,27.727,47,26.973,47,26.171v-6.356c1.161-0.414,2-1.514,2-2.816V8.083C49,6.963,48.109,6.053,47,6.008z M21,3v8h6V3h2v8h6    V3h2v8h6V3h2v4.285c-0.06,0.145-0.11,0.295-0.137,0.456v0L43.82,14H20.18l-1.043-6.259C19.11,7.58,19.06,7.43,19,7.285V3H21z     M44.707,26.879l-2.881,2.881c-0.516,0.516-0.826,1.201-0.873,1.928l-1.83,28.376C39.089,60.589,38.65,61,38.125,61h-12.25    c-0.525,0-0.964-0.411-0.998-0.936l-1.83-28.376C23,30.96,22.689,30.276,22.174,29.76l-2.881-2.881    C19.104,26.69,19,26.438,19,26.171V20h26v6.171C45,26.438,44.896,26.69,44.707,26.879z M47,17c0,0.551-0.448,1-1,1H18    c-0.552,0-1-0.449-1-1V8.083C17,8.037,17.037,8,17.083,8c0.04,0,0.074,0.029,0.081,0.069L18.486,16h27.027l1.322-7.931v0    C46.851,7.983,46.999,7.997,47,8.083V17z"/>
		<rect x="30" y="42" width="4" height="2"/>
		<rect x="30" y="46" width="4" height="2"/>
		<rect x="31" y="22" width="2" height="2"/>
		<rect x="31" y="26" width="2" height="8"/>
		<rect x="31" y="36" width="2" height="2"/>
	</g>
</g>
</svg>
