<?xml version="1.0" encoding="iso-8859-1"?>
<!-- Generator: Adobe Illustrator 22.0.0, SVG Export Plug-In . SVG Version: 6.00 Build 0)  -->
<svg xmlns="http://www.w3.org/2000/svg" xmlns:xlink="http://www.w3.org/1999/xlink" version="1.1" id="Layer_1_1_" x="0px" y="0px" viewBox="0 0 64 64" style="enable-background:new 0 0 64 64;" xml:space="preserve" width="512" height="512">
<g>
	<g>
		<path style="fill:#F0BC5E;" d="M42,6H22l-2.644,7.932C19.12,14.639,19,15.38,19,16.126c0,0.159,0.013,0.317,0.023,0.475    C20.469,18.115,22.47,19,24.605,19H26v-3c0-1.419,2.464-3,6-3s6,1.581,6,3v3h1.395c2.136,0,4.136-0.885,5.582-2.399    C44.987,16.443,45,16.285,45,16.126c0-0.746-0.12-1.487-0.356-2.194L42,6z"/>
	</g>
	<g>
		<path style="fill:#F0BC5E;" d="M35.693,35h-7.387L25,26.182V26c0-3.859,3.141-7,7-7s7,3.141,7,7v0.182L35.693,35z"/>
	</g>
	<g>
		<rect x="26" y="29" width="12" height="2"/>
		<path d="M40.24,25.174l3.435-3.435c1.499-1.5,2.325-3.493,2.325-5.613c0-0.856-0.138-1.701-0.408-2.511L43,5.838V3    c0-1.103-0.897-2-2-2H23c-1.103,0-2,0.897-2,2v2.838l-2.592,7.777C18.138,14.425,18,15.27,18,16.126    c0,2.12,0.826,4.113,2.325,5.613l3.435,3.435C21.605,25.73,20,27.674,20,30v3.343c0,9.127,0.908,18.293,2.698,27.245    C22.977,61.985,24.214,63,25.64,63H38.36c1.426,0,2.663-1.015,2.941-2.412C43.092,51.636,44,42.47,44,33.343V30    C44,27.674,42.395,25.73,40.24,25.174z M41,5h-2V3h2V5z M27,5V3h2v2H27z M31,3h2v2h-2V3z M35,3h2v2h-2V3z M25,3v2h-2V3H25z     M20,16.126c0-0.64,0.103-1.272,0.305-1.878L22.721,7h18.559l2.416,7.249C43.897,14.854,44,15.486,44,16.126    c0,1.586-0.618,3.077-1.739,4.199L37.586,25H26.414l-4.675-4.675C20.618,19.203,20,17.712,20,16.126z M22,30c0-1.654,1.346-3,3-3    h14c1.654,0,3,1.346,3,3v3.343c0,0.053-0.002,0.106-0.002,0.159l-6.81,5.108C34.457,37.638,33.306,37,32,37    s-2.457,0.638-3.188,1.61l-6.81-5.108c0-0.053-0.002-0.106-0.002-0.159V30z M29.6,44.18C30.271,44.687,31.096,45,32,45    s1.729-0.313,2.4-0.82c0.216,1.61,0.46,3.216,0.734,4.82h-6.267C29.141,47.396,29.384,45.79,29.6,44.18z M30,41    c0-1.103,0.897-2,2-2s2,0.897,2,2s-0.897,2-2,2S30,42.103,30,41z M28.511,51h6.978c0.503,2.697,1.075,5.38,1.738,8.028L37.72,61    H26.28l0.493-1.972C27.436,56.38,28.008,53.697,28.511,51z M22.033,36.024l6.014,4.51c-0.014,0.118-0.033,0.235-0.036,0.355    l-0.005-0.001c-0.659,5.931-1.727,11.87-3.172,17.653l-0.277,1.108C23.035,51.878,22.189,43.946,22.033,36.024z M39.443,59.65    l-0.277-1.108c-1.445-5.783-2.513-11.722-3.172-17.653l-0.005,0.001c-0.003-0.121-0.022-0.237-0.036-0.355l6.014-4.51    C41.811,43.946,40.964,51.877,39.443,59.65z"/>
		<rect x="30" y="53" width="4" height="2"/>
		<rect x="30" y="57" width="4" height="2"/>
	</g>
</g>
</svg>
