<?xml version="1.0" encoding="iso-8859-1"?>
<!-- Generator: Adobe Illustrator 22.0.0, SVG Export Plug-In . SVG Version: 6.00 Build 0)  -->
<svg xmlns="http://www.w3.org/2000/svg" xmlns:xlink="http://www.w3.org/1999/xlink" version="1.1" id="Layer_1_1_" x="0px" y="0px" viewBox="0 0 64 64" style="enable-background:new 0 0 64 64;" xml:space="preserve" width="512" height="512">
<g>
	<g>
		<path d="M42.188,17.48c0.633-0.66,1.199-1.392,1.663-2.205C44.603,13.96,45,12.464,45,10.95c0-0.713-0.088-1.425-0.261-2.115    L42.781,1H41h-1H24h-1h-1.781l-1.958,7.835C19.088,9.525,19,10.237,19,10.95c0,1.514,0.397,3.01,1.148,4.326    c0.464,0.812,1.031,1.544,1.663,2.204l-2.224,7.413c-0.39,1.3-0.588,2.647-0.588,4.006c0,0.706,0.058,1.407,0.164,2.101H19    c-1.103,0-2,0.897-2,2v10c0,1.103,0.897,2,2,2h3v-2h-3V33h0.626c0.032,0.103,0.055,0.207,0.089,0.309l2.336,7.007l1.896-0.633    l-2.335-7.007C21.206,31.456,21,30.185,21,28.899c0-1.164,0.17-2.318,0.504-3.432l1.97-6.568c1.888,1.331,4.159,2.1,6.539,2.1H32    h1.987c2.38,0,4.651-0.769,6.539-2.1l1.97,6.568C42.83,26.581,43,27.736,43,28.899c0,1.285-0.206,2.556-0.612,3.777l-2.336,7.007    l1.896,0.633l2.337-7.008C44.76,31.883,45,30.4,45,28.899c0-1.359-0.198-2.707-0.588-4.006L42.188,17.48z M41.219,3L42.8,9.321    C42.933,9.853,43,10.4,43,10.95c0,1.167-0.306,2.32-0.885,3.333c-0.728,1.275-1.746,2.321-2.93,3.114    C40.319,15.891,41,14.026,41,12V3H41.219z M39,7h-2V3h2V7z M29,7V3h2v4H29z M33,3h2v4h-2V3z M27,3v4h-2V3H27z M21.2,9.321    L22.781,3H23v9c0,2.026,0.681,3.892,1.815,5.398c-1.184-0.792-2.202-1.839-2.93-3.113C21.306,13.27,21,12.117,21,10.95    C21,10.4,21.067,9.853,21.2,9.321z M25,12V9h14v3c0,3.86-3.141,7-7,7S25,15.86,25,12z"/>
		<rect x="25" y="23" width="14" height="2"/>
		<rect x="31" y="28" width="2" height="2"/>
	</g>
	<g>
		<path style="fill:#F0BC5E;" d="M37.322,63H26.678c-1.458,0-2.701-1.042-2.954-2.479l-2.556-14.485    C21.057,45.407,21,44.764,21,44.124V44c0-6.065,4.935-11,11-11s11,4.935,11,11v0.124c0,0.64-0.057,1.283-0.168,1.912    l-2.556,14.485C40.023,61.958,38.78,63,37.322,63z"/>
	</g>
	<g>
		<rect x="27" y="41" width="10" height="2"/>
	</g>
	<g>
		<rect x="27" y="45" width="10" height="2"/>
	</g>
	<g>
		<rect x="27" y="49" width="10" height="2"/>
	</g>
	<g>
		<rect x="29" y="53" width="6" height="2"/>
	</g>
</g>
</svg>
