<?xml version="1.0" encoding="iso-8859-1"?>
<!-- Generator: Adobe Illustrator 22.0.0, SVG Export Plug-In . SVG Version: 6.00 Build 0)  -->
<svg xmlns="http://www.w3.org/2000/svg" xmlns:xlink="http://www.w3.org/1999/xlink" version="1.1" id="Layer_1_1_" x="0px" y="0px" viewBox="0 0 64 64" style="enable-background:new 0 0 64 64;" xml:space="preserve" width="512" height="512">
<g>
	<g>
		<rect x="13" y="47" style="fill:#F0BC5E;" width="8" height="5"/>
	</g>
	<g>
		<g>
			<g>
				<path style="fill:#F0BC5E;" d="M24,35H10c-1.654,0-3-1.346-3-3V8c0-1.654,1.346-3,3-3h14c1.654,0,3,1.346,3,3v24      C27,33.654,25.654,35,24,35z"/>
			</g>
		</g>
		<g>
			<g>
				<path style="fill:#F0BC5E;" d="M56,35H40c-1.654,0-3-1.346-3-3V8c0-1.654,1.346-3,3-3h16c1.654,0,3,1.346,3,3v24      C59,33.654,57.654,35,56,35z"/>
			</g>
		</g>
		<g>
			<rect x="11" y="9" width="2" height="2"/>
			<rect x="16" y="9" width="2" height="2"/>
			<rect x="21" y="9" width="2" height="2"/>
			<rect x="11" y="13" width="2" height="2"/>
			<rect x="16" y="13" width="2" height="2"/>
			<rect x="21" y="13" width="2" height="2"/>
			<rect x="11" y="17" width="2" height="2"/>
			<rect x="16" y="17" width="2" height="2"/>
			<rect x="21" y="17" width="2" height="2"/>
			<rect x="11" y="21" width="2" height="2"/>
			<rect x="16" y="21" width="2" height="2"/>
			<rect x="21" y="21" width="2" height="2"/>
			<rect x="11" y="25" width="2" height="2"/>
			<rect x="16" y="25" width="2" height="2"/>
			<rect x="21" y="25" width="2" height="2"/>
			<rect x="11" y="29" width="2" height="2"/>
			<rect x="16" y="29" width="2" height="2"/>
			<rect x="21" y="29" width="2" height="2"/>
			<rect x="16" y="56" width="2" height="2"/>
			<path d="M53,3c0-1.103-0.897-2-2-2h-6c-1.103,0-2,0.897-2,2v2h2V3h6v2h2V3z"/>
			<polygon points="35,9 35,11 45,11 45,13 35,13 35,15 45,15 45,17 35,17 35,19 45,19 45,21 35,21 35,23 45,23 45,25 35,25 35,27      45,27 45,29 35,29 35,31 45,31 45,35 47,35 47,31 47,29 47,27 47,25 47,23 47,21 47,19 47,17 47,15 47,13 47,11 47,9 47,5 45,5      45,9    "/>
			<polygon points="61,11 61,9 51,9 51,5 49,5 49,9 49,11 49,13 49,15 49,17 49,19 49,21 49,23 49,25 49,27 49,29 49,31 49,35      51,35 51,31 61,31 61,29 51,29 51,27 61,27 61,25 51,25 51,23 61,23 61,21 51,21 51,19 61,19 61,17 51,17 51,15 61,15 61,13      51,13 51,11    "/>
			<path d="M52,37h-8v-2h-2v2c0,1.103,0.897,2,2,2v22c0,1.103,0.897,2,2,2h4c1.103,0,2-0.897,2-2V39c1.103,0,2-0.897,2-2v-2h-2V37z      M50,41h-2v2h2v2h-2v2h2v2h-2v2h2v2h-2v2h2v2h-2v2h2v2h-4V39h4V41z"/>
			<path d="M24,1H10C6.141,1,3,4.14,3,8v24c0,3.859,3.141,7,7,7h2v21c0,1.654,1.346,3,3,3h4c1.654,0,3-1.346,3-3V39h2     c3.859,0,7-3.141,7-7V8C31,4.14,27.859,1,24,1z M19,61h-4c-0.552,0-1-0.448-1-1v-7h6v7C20,60.552,19.552,61,19,61z M20,51h-6V39     h6V51z M29,32c0,2.757-2.243,5-5,5H10c-2.757,0-5-2.243-5-5V8c0-2.757,2.243-5,5-5h14c2.757,0,5,2.243,5,5V32z"/>
		</g>
	</g>
</g>
</svg>
