<?xml version="1.0" encoding="iso-8859-1"?>
<!-- Generator: Adobe Illustrator 22.0.0, SVG Export Plug-In . SVG Version: 6.00 Build 0)  -->
<svg xmlns="http://www.w3.org/2000/svg" xmlns:xlink="http://www.w3.org/1999/xlink" version="1.1" id="Layer_1_1_" x="0px" y="0px" viewBox="0 0 64 64" style="enable-background:new 0 0 64 64;" xml:space="preserve" width="512" height="512">
<g>
	<g>
		<path style="fill:#F0BC5E;" d="M42,1c-8.284,0-15,6.716-15,15v8h1c0-2.209,1.791-4,4-4v-5l3.89,1.729    C39.259,18.226,42.905,19,46.592,19c1.822,0,3.634-0.192,5.408-0.564V19v1c2.209,0,4,1.791,4,4h1v-8C57,7.716,50.284,1,42,1z"/>
	</g>
	<g>
		<path style="fill:#F0BC5E;" d="M5,26v3c0,1.103,0.897,2,2,2h6c1.103,0,2-0.897,2-2v-3H5z"/>
	</g>
	<g>
		<path style="fill:#F0BC5E;" d="M10,50c-1.654,0-3-1.346-3-3v-4c0-1.654,1.346-3,3-3s3,1.346,3,3v4C13,48.654,11.654,50,10,50z"/>
	</g>
	<g>
		<path d="M58.214,40.685L48,37.279v-2.072c2.21-1.445,3.864-3.663,4.589-6.267C55.066,28.645,57,26.555,57,24    c0-2.327-1.606-4.272-3.763-4.826c1.402-0.352,2.782-0.808,4.128-1.385l3.662-1.569l-8.446-6.033l-1.162,1.628l5.554,3.967    l-0.396,0.17C53.404,17.311,50.045,18,46.592,18c-3.57,0-7.034-0.735-10.295-2.185L31,13.461v5.64c-2.279,0.465-4,2.484-4,4.899    c0,2.555,1.934,4.645,4.411,4.94c0.724,2.605,2.379,4.822,4.589,6.267v2.072l-10.213,3.405C22.923,41.638,21,44.307,21,47.324V63    h42V47.324C63,44.307,61.077,41.638,58.214,40.685z M36.8,39.121l3.703,2.962l-2.961,2.961l-1.424-5.696L36.8,39.121z     M47.2,39.121l0.682,0.227l-1.424,5.696l-2.961-2.961L47.2,39.121z M36.458,48.956L42,43.414l5.542,5.542l2.243-8.974L50,40.054    V51H34V40.054l0.215-0.072L36.458,48.956z M52,53V40.721l3,1V61H29V41.721l3-1V53H52z M55,24c0,1.317-0.859,2.427-2.042,2.829    C52.979,26.554,53,26.28,53,26v-4.816C54.161,21.598,55,22.698,55,24z M29,24c0-1.302,0.839-2.402,2-2.816V26    c0,0.28,0.021,0.554,0.042,0.829C29.859,26.427,29,25.317,29,24z M33,26v-9.461l2.484,1.104C39.003,19.207,42.74,20,46.592,20    c1.487,0,2.959-0.119,4.408-0.354V26c0,4.962-4.038,9-9,9S33,30.962,33,26z M42,37c1.412,0,2.758-0.277,4-0.764v1.283l-4,3.201    l-4-3.201v-1.283C39.242,36.723,40.588,37,42,37z M23,47.324c0-2.155,1.374-4.062,3.419-4.743L27,42.387V61h-4V47.324z M61,61h-4    V42.387l0.582,0.194C59.626,43.263,61,45.169,61,47.324V61z"/>
		<circle cx="48" cy="22" r="1"/>
		<circle cx="36" cy="22" r="1"/>
		<path d="M46,28h-2c0,1.103-0.897,2-2,2s-2-0.897-2-2h-2c0,2.206,1.794,4,4,4S46,30.206,46,28z"/>
		<path d="M1.002,22.066l2.033,30.492L6,54.535V61c0,1.103,0.897,2,2,2h4c1.103,0,2-0.897,2-2v-6.465l2.965-1.977L19,22v-5H1    L1.002,22.066z M11,21v-2h2v2H11z M9,21H7v-2h2V21z M16.931,23l-0.133,2H3.2l-0.133-2H16.931z M16.665,27l-0.4,6H3.734l-0.4-6    H16.665z M8,61v-6h4v6H8z M12.697,53H7.303l-2.338-1.559L3.868,35h12.264l-1.096,16.441L12.697,53z M17.002,21H15v-2h2L17.002,21z     M5,19v2H3v-2H5z"/>
	</g>
</g>
</svg>
