<?xml version="1.0" encoding="iso-8859-1"?>
<!-- Generator: Adobe Illustrator 22.0.0, SVG Export Plug-In . SVG Version: 6.00 Build 0)  -->
<svg xmlns="http://www.w3.org/2000/svg" xmlns:xlink="http://www.w3.org/1999/xlink" version="1.1" id="Layer_1_1_" x="0px" y="0px" viewBox="0 0 64 64" style="enable-background:new 0 0 64 64;" xml:space="preserve" width="512" height="512">
<g>
	<g>
		<path style="fill:#F0BC5E;" d="M52.302,30.231C49.648,31.558,48,34.225,48,37.191c0,2.048,0.831,4.054,2.279,5.502l1.014,1.014    l0.34,0.302C52.525,41.1,53,38.077,53,35.032c0-1.651-0.141-3.298-0.406-4.926l-0.042,0.001L52.302,30.231z"/>
	</g>
	<g>
		<path style="fill:#F0BC5E;" d="M38.552,14c4.12,0,8.008-1.634,10.668-4.482C50.418,8.232,51,7.082,51,6    c0-1.966-0.739-3.23-1.423-3.982C49.314,2.01,49.051,2,48.787,2h0c-4.463,0-8.865,1.039-12.857,3.035    C33.345,6.327,30.496,7,27.606,7H14v7H38.552z"/>
	</g>
	<g>
		<path d="M61.702,3.82l-2.47-0.926C55.881,1.637,52.366,1,48.787,1c-4.595,0-9.195,1.086-13.305,3.141    C33.05,5.357,30.326,6,27.606,6H14.259l-9-5H1v24h4.259l9-5h11.557c4.021,0,8.039,0.495,11.942,1.47    c1.728,0.432,3.48,0.753,5.242,1.003V25h-2c-1.103,0-2,0.897-2,2v4c0,1.103,0.897,2,2,2h2.027    c0.065,3.085,0.387,6.173,0.992,9.196c0.65,3.253,0.98,6.585,0.98,9.902V58h2v5h2v-5h2v-4.481c0-2.891,0.464-5.746,1.377-8.488    C53.454,41.801,54,38.437,54,35.031c0-2.077-0.207-4.163-0.614-6.2l-0.313-1.566C53.024,27.021,53,26.775,53,26.532    c0-1.25,0.621-2.411,1.661-3.104L55.303,23H59c1.103,0,2-0.897,2-2v-7.764l1.789-3.578C62.927,9.382,63,9.073,63,8.764V5.693    C63,4.864,62.479,4.111,61.702,3.82z M13,17.557l-6-2.25v-4.614l6-2.25V17.557z M4.741,23H3V3h1.741l6.882,3.823L5,9.307v7.386    l6.623,2.484L4.741,23z M41,27h2v4h-2V27z M51.111,27.656l0.313,1.568C51.807,31.132,52,33.086,52,35.031    c0,3.19-0.512,6.342-1.52,9.366C49.498,47.344,49,50.412,49,53.519V56h-2v-3.901c0-3.449-0.343-6.912-1.02-10.295    C45.33,38.551,45,35.219,45,31.901v-9.186C46.723,22.89,48.452,23,50.185,23h2.045C51.448,23.995,51,25.229,51,26.532    C51,26.905,51.037,27.282,51.111,27.656z M61,8.764l-1.789,3.578C59.073,12.618,59,12.927,59,13.236V21h-8.815    c-4.021,0-8.039-0.495-11.942-1.47c-2.055-0.514-4.141-0.897-6.242-1.152V16h-2v2.193c-0.666-0.055-1.332-0.097-2-0.126V16h-2    v2.006c-0.062,0-0.123-0.006-0.185-0.006H24v-2h-2v2h-2v-2h-2v2h-3V8h12.606c3.028,0,6.062-0.716,8.771-2.07    C40.21,4.013,44.501,3,48.787,3C50.206,3,51.61,3.13,53,3.344V9h2V3.732c0.672,0.155,1.339,0.333,2,0.538V9h2V4.943l2,0.75V8.764z    "/>
		<rect x="49" y="17" width="2" height="2"/>
		<rect x="53" y="17" width="2" height="2"/>
	</g>
</g>
</svg>
