<?xml version="1.0" encoding="iso-8859-1"?>
<!-- Generator: Adobe Illustrator 22.0.0, SVG Export Plug-In . SVG Version: 6.00 Build 0)  -->
<svg xmlns="http://www.w3.org/2000/svg" xmlns:xlink="http://www.w3.org/1999/xlink" version="1.1" id="Layer_1_1_" x="0px" y="0px" viewBox="0 0 64 64" style="enable-background:new 0 0 64 64;" xml:space="preserve" width="512" height="512">
<g>
	<g>
		<g>
			<path style="fill:#F0BC5E;" d="M31,53H5v-6h26V53z"/>
		</g>
	</g>
	<g>
		<g>
			<path style="fill:#F0BC5E;" d="M50,44c-3.859,0-7-3.141-7-7V21c0-3.859,3.141-7,7-7s7,3.141,7,7v16C57,40.859,53.859,44,50,44z"/>
		</g>
	</g>
	<g>
		<path d="M35,36c0-1.654-1.346-3-3-3h-0.54c0.954-1.063,1.54-2.462,1.54-4c0-3.309-2.691-6-6-6h-0.062    c-0.303-3.703-2.251-7.077-5.376-9.16l-1.95-1.3l-2.146,4.292c-0.702,1.404-2.052,2.359-3.61,2.554    C10.518,19.802,8,22.654,8,26.02V27H7c-2.206,0-4,1.794-4,4c0,0.749,0.22,1.443,0.579,2.042C2.125,33.249,1,34.49,1,36    c0,1.629,1.306,2.952,2.925,2.992L1,42.649v14.701L5.52,63H30.48L35,57.351V42.649l-2.925-3.657C33.694,38.952,35,37.629,35,36z     M7,29h7v-2h-4v-0.98c0-2.358,1.765-4.357,4.104-4.65c2.223-0.278,4.149-1.64,5.151-3.644l1.132-2.265l0.065,0.043    c2.567,1.711,4.188,4.464,4.485,7.496H20v2h7c2.206,0,4,1.794,4,4s-1.794,4-4,4H7c-1.103,0-2-0.897-2-2S5.897,29,7,29z M29.519,39    l3.2,4H3.281l3.2-4H29.519z M3,55V45h30v10H3z M29.52,61H6.48l-3.2-4H32.72L29.52,61z M32,37H4c-0.551,0-1-0.448-1-1s0.449-1,1-1    h3h20h5c0.551,0,1,0.448,1,1S32.551,37,32,37z"/>
		<rect x="16" y="27" width="2" height="2"/>
		<path d="M63,1H37l0.002,7.065L40,54.034V60c0,1.654,1.346,3,3,3h14c1.654,0,3-1.346,3-3v-5.967L63,8V1z M41.937,53l-0.131-2    h16.387l-0.13,2H41.937z M52.816,55c-0.414,1.161-1.514,2-2.816,2s-2.402-0.839-2.816-2H52.816z M58.324,49H41.676L39.065,9    h21.867L58.324,49z M55,7V3h2v4H55z M53,7h-2V3h2V7z M49,7h-2V3h2V7z M45,7h-2V3h2V7z M59,7V3h2l0.001,4H59z M41,3v4h-2V3H41z     M58,60c0,0.552-0.449,1-1,1H43c-0.551,0-1-0.448-1-1v-5h3.101c0.465,2.279,2.484,4,4.899,4s4.434-1.721,4.899-4H58V60z"/>
	</g>
</g>
</svg>
