<?xml version="1.0" encoding="iso-8859-1"?>
<!-- Generator: Adobe Illustrator 22.0.0, SVG Export Plug-In . SVG Version: 6.00 Build 0)  -->
<svg xmlns="http://www.w3.org/2000/svg" xmlns:xlink="http://www.w3.org/1999/xlink" version="1.1" id="Layer_1_1_" x="0px" y="0px" viewBox="0 0 64 64" style="enable-background:new 0 0 64 64;" xml:space="preserve" width="512" height="512">
<g>
	<g>
		<path style="fill:#F0BC5E;" d="M19,9C13.486,9,9,13.486,9,19v5h1c0-1.657,1.343-3,3-3v2c2.596-1.947,5.754-3,9-3h3v1    c1.657,0,3,1.343,3,3h1v-5C29,13.486,24.514,9,19,9z"/>
	</g>
	<g>
		<path style="fill:#F0BC5E;" d="M46,20c-2.818,0-5.51,1.346-7.2,3.601l-0.423,0.563C36.344,24.98,35,26.949,35,29.162v7h1    c0-1.657,1.343-3,3-3v-2c1.281,1.281,3.017,2,4.828,2H44v-0.622c0.881,0.401,1.842,0.622,2.828,0.622H47v-0.622    c0.881,0.401,1.842,0.622,2.828,0.622H51c1.657,0,3,1.343,3,3h1V29C55,24.037,50.963,20,46,20z"/>
	</g>
	<g>
		<rect x="35" y="10" style="fill:#F0BC5E;" width="20" height="8"/>
	</g>
	<g>
		<rect x="9" y="35" style="fill:#F0BC5E;" width="20" height="8"/>
	</g>
	<g>
		<path d="M59,9V5H5v4H1v43h24.071c0.486,3.388,3.408,6,6.929,6s6.442-2.612,6.929-6H63V9H59z M57,7v39H33V7H57z M7,7h24v39H7V7z     M61,50H37v1c0,2.757-2.243,5-5,5s-5-2.243-5-5v-1H3V11h2v37h54V11h2V50z"/>
		<path d="M12.669,27.967C13.788,30.345,16.202,32,19,32s5.212-1.655,6.331-4.033C27.38,27.795,29,26.092,29,24    c0-1.858-1.279-3.411-3-3.858V19h-1h-1h-2c-2.801,0-5.577,0.765-8,2.161V19h-2v1.142c-1.721,0.447-3,2-3,3.858    C9,26.092,10.62,27.795,12.669,27.967z M27,24c0,0.754-0.424,1.403-1.041,1.744C25.985,25.499,26,25.251,26,25v-2.722    C26.595,22.625,27,23.263,27,24z M22,21h2v4c0,2.757-2.243,5-5,5s-5-2.243-5-5v-1.475C16.336,21.9,19.153,21,22,21z M12,22.278V25    c0,0.251,0.015,0.499,0.041,0.744C11.424,25.403,11,24.754,11,24C11,23.263,11.405,22.625,12,22.278z"/>
		<path d="M52,32.304V30h-2v2.162h-0.172c-1.557,0-3.021-0.606-4.121-1.707l-1.216,1.216c-0.656-0.288-1.262-0.694-1.784-1.216    l-1.216,1.216c-0.538-0.236-1.039-0.556-1.491-0.95V30h-2v2.304c-1.721,0.447-3,1.999-3,3.858c0,2.093,1.62,3.795,3.669,3.967    c1.12,2.379,3.533,4.033,6.331,4.033s5.211-1.655,6.331-4.033C53.38,39.957,55,38.255,55,36.162    C55,34.303,53.721,32.751,52,32.304z M37,36.162c0-0.737,0.405-1.375,1-1.722v2.722c0,0.251,0.015,0.499,0.041,0.744    C37.424,37.565,37,36.915,37,36.162z M45,42.162c-2.757,0-5-2.243-5-5v-4.003c1.156,0.651,2.464,1.003,3.828,1.003H44v-0.531    c0.891,0.345,1.844,0.531,2.828,0.531H47v-0.531c0.891,0.345,1.844,0.531,2.828,0.531H50v3C50,39.919,47.757,42.162,45,42.162z     M51.959,37.906C51.985,37.661,52,37.413,52,37.162V34.44c0.595,0.347,1,0.985,1,1.722C53,36.915,52.576,37.565,51.959,37.906z"/>
		<rect x="9" y="34" width="20" height="2"/>
		<rect x="20" y="38" width="9" height="2"/>
		<rect x="9" y="38" width="9" height="2"/>
		<rect x="35" y="9" width="20" height="2"/>
		<rect x="35" y="17" width="20" height="2"/>
		<rect x="46" y="13" width="9" height="2"/>
		<rect x="35" y="13" width="9" height="2"/>
		<rect x="9" y="42" width="20" height="2"/>
	</g>
</g>
</svg>
