<?xml version="1.0" encoding="iso-8859-1"?>
<!-- Generator: Adobe Illustrator 22.0.0, SVG Export Plug-In . SVG Version: 6.00 Build 0)  -->
<svg xmlns="http://www.w3.org/2000/svg" xmlns:xlink="http://www.w3.org/1999/xlink" version="1.1" id="Layer_1_1_" x="0px" y="0px" viewBox="0 0 64 64" style="enable-background:new 0 0 64 64;" xml:space="preserve" width="512" height="512">
<g>
	<g>
		<path style="fill:#F0BC5E;" d="M32.5,1C23.402,1,16,8.402,16,17.5v9l1.01,0.095C17.009,26.562,17,26.532,17,26.5    c0-2.209,1.791-4,4-4V21c0-1.105,0.895-2,2-2h2.344c1.74,0,3.45-0.454,4.961-1.318l3.237-1.85C34.498,15.287,35.579,15,36.679,15    C40.17,15,43,17.83,43,21.321V21.5V30c0,1.63-0.364,3.172-1,4.563v3.914l1.371-0.549C46.791,36.561,49,33.298,49,29.615V17.5    C49,8.402,41.598,1,32.5,1z"/>
	</g>
	<g>
		<path d="M52.33,46.644L40,42.292v-3.373c2.448-2.198,4-5.377,4-8.919v-8.679C44,17.284,40.716,14,36.679,14    c-1.272,0-2.528,0.333-3.632,0.965l-3.237,1.85C28.452,17.59,26.908,18,25.344,18H23c-1.654,0-3,1.346-3,3v0.601    c-2.279,0.465-4,2.484-4,4.899c0,2.445,1.767,4.478,4.09,4.908c0.35,2.972,1.791,5.609,3.91,7.511v3.373l-12.33,4.352    C8.877,47.63,7,50.282,7,53.245V63h50v-9.755C57,50.282,55.123,47.63,52.33,46.644z M40.796,44.695l-2.373,9.493l-4.952-4.244    l5.791-5.791L40.796,44.695z M18,26.5c0-1.302,0.839-2.402,2-2.816v5.631C18.839,28.902,18,27.802,18,26.5z M22,30v-9    c0-0.551,0.449-1,1-1h2.344c1.911,0,3.798-0.501,5.458-1.449l3.237-1.85C34.841,16.243,35.754,16,36.679,16    C39.613,16,42,18.387,42,21.321V30c0,5.514-4.486,10-10,10S22,35.514,22,30z M32,42c2.187,0,4.232-0.597,6-1.624v2.21l-6,6l-6-6    v-2.21C27.768,41.403,29.813,42,32,42z M24.739,44.153l5.791,5.791l-4.952,4.244l-2.373-9.493L24.739,44.153z M55,61h-7v-7h-2v7    H18v-7h-2v7H9v-7.755c0-2.116,1.34-4.011,3.336-4.715l8.974-3.167l3.112,12.449L32,51.317l7.578,6.496l3.112-12.449l8.974,3.167    C53.66,49.234,55,51.129,55,53.245V61z"/>
		<circle cx="38" cy="24" r="1"/>
		<circle cx="26" cy="24" r="1"/>
		<path d="M32,36c2.757,0,5-2.243,5-5h-2c0,1.654-1.346,3-3,3s-3-1.346-3-3h-2C27,33.757,29.243,36,32,36z"/>
	</g>
</g>
</svg>
