<?xml version="1.0" encoding="iso-8859-1"?>
<!-- Generator: Adobe Illustrator 22.0.0, SVG Export Plug-In . SVG Version: 6.00 Build 0)  -->
<svg xmlns="http://www.w3.org/2000/svg" xmlns:xlink="http://www.w3.org/1999/xlink" version="1.1" id="Layer_1_1_" x="0px" y="0px" viewBox="0 0 64 64" style="enable-background:new 0 0 64 64;" xml:space="preserve" width="512" height="512">
<g>
	<g>
		<rect x="5" y="25" style="fill:#F0BC5E;" width="24" height="25"/>
	</g>
	<g>
		<rect x="33" y="27" style="fill:#F0BC5E;" width="26" height="27"/>
	</g>
	<g>
		<path d="M55,17h-2v-4h-4V9h9V3h-9.764l-4-2H42c-2.206,0-4,1.794-4,4s1.794,4,4,4h1v4h-4v4h-2c-2.757,0-5,2.243-5,5v36    c0,2.757,2.243,5,5,5h18c2.757,0,5-2.243,5-5V22C60,19.243,57.757,17,55,17z M40,5c0-1.103,0.897-2,2-2h1.764l4,2H56v2H42    C40.897,7,40,6.103,40,5z M45,9h2v4h-2V9z M41,15h10v2H41V15z M58,58c0,1.654-1.346,3-3,3H37c-1.654,0-3-1.346-3-3V22    c0-1.654,1.346-3,3-3h18c1.654,0,3,1.346,3,3V58z"/>
		<path d="M52.945,40.104c-0.263-2.49-1.606-4.747-3.718-6.154l-3.853-2.568l-0.782,3.129c-0.274,1.097-1.064,2.003-2.115,2.422    C40.365,37.777,39,39.793,39,42.068V43c-1.654,0-3,1.346-3,3s1.346,3,3,3h13c2.481,0,4.5-2.019,4.5-4.5    C56.5,42.343,54.973,40.539,52.945,40.104z M52,47H39c-0.551,0-1-0.448-1-1s0.449-1,1-1h6v-2h-4v-0.932    c0-1.453,0.872-2.74,2.22-3.279c1.645-0.657,2.883-2.076,3.312-3.795l0.094-0.375l1.491,0.994c1.523,1.015,2.52,2.61,2.796,4.387    H47v2h5c1.378,0,2.5,1.121,2.5,2.5S53.378,47,52,47z"/>
		<path d="M26,13.101V9h-3V3c0-1.103-0.897-2-2-2h-8c-1.103,0-2,0.897-2,2v6H8v4.101C5.721,13.566,4,15.586,4,18v40    c0,2.757,2.243,5,5,5h16c2.757,0,5-2.243,5-5V18C30,15.586,28.279,13.566,26,13.101z M24,13h-2v-2h2V13z M16,11v2h-2v-2H16z     M18,11h2v2h-2V11z M13,3h8v6h-8V3z M12,11v2h-2v-2H12z M28,58c0,1.654-1.346,3-3,3H9c-1.654,0-3-1.346-3-3V18    c0-1.654,1.346-3,3-3h16c1.654,0,3,1.346,3,3V58z"/>
		<rect x="16" y="5" width="2" height="2"/>
		<path d="M17,27.764l-5.382,10.764C11.214,39.336,11,40.241,11,41.146C11,44.374,13.626,47,16.854,47h0.292    C20.374,47,23,44.374,23,41.146c0-0.904-0.214-1.81-0.618-2.618L17,27.764z M17.146,45h-0.292C14.729,45,13,43.271,13,41.146    c0-0.595,0.141-1.191,0.407-1.724L17,32.236l3.593,7.186C20.859,39.954,21,40.551,21,41.146C21,43.271,19.271,45,17.146,45z"/>
		<path d="M17,42v2c1.654,0,3-1.346,3-3h-2C18,41.552,17.551,42,17,42z"/>
	</g>
</g>
</svg>
