<?xml version="1.0" encoding="iso-8859-1"?>
<!-- Generator: Adobe Illustrator 22.0.0, SVG Export Plug-In . SVG Version: 6.00 Build 0)  -->
<svg xmlns="http://www.w3.org/2000/svg" xmlns:xlink="http://www.w3.org/1999/xlink" version="1.1" id="Layer_1_1_" x="0px" y="0px" viewBox="0 0 64 64" style="enable-background:new 0 0 64 64;" xml:space="preserve" width="512" height="512">
<g>
	<g>
		<rect x="28" y="46" style="fill:#F0BC5E;" width="8" height="7"/>
	</g>
	<g>
		<g>
			<path style="fill:#F0BC5E;" d="M32,35c-8.271,0-15-6.729-15-15S23.729,5,32,5s15,6.729,15,15S40.271,35,32,35z"/>
		</g>
	</g>
	<g>
		<path d="M32,11V9c-0.738,0-1.478,0.074-2.199,0.22l0.397,1.961C30.789,11.061,31.395,11,32,11z"/>
		<path d="M28.4,11.748L27.6,9.916C23.59,11.667,21,15.626,21,20h2C23,16.421,25.12,13.182,28.4,11.748z"/>
		<path d="M54.703,23.605C56.056,22.963,57,21.595,57,20c0-2.206-1.794-4-4-4h-2.432C48.725,7.439,41.104,1,32,1    S15.275,7.439,13.432,16H11c-2.206,0-4,1.794-4,4c0,1.595,0.944,2.963,2.297,3.605C10.876,33.581,19.014,41.469,29,42.784V45h-2    v12h-9c-2.757,0-5,2.243-5,5v1h38v-1c0-2.757-2.243-5-5-5h-9V45h-2v-2.216C44.986,41.469,53.124,33.581,54.703,23.605z M35,40.767    v-2.028C42.738,37.504,48.932,31.599,50.568,24h2.033C50.913,32.685,43.763,39.5,35,40.767z M53,18c1.103,0,2,0.897,2,2    s-0.897,2-2,2h-2.107C50.962,21.342,51,20.676,51,20s-0.038-1.342-0.107-2H53z M32,3c9.374,0,17,7.626,17,17s-7.626,17-17,17    s-17-7.626-17-17S22.626,3,32,3z M11,18h2.107C13.038,18.658,13,19.324,13,20s0.038,1.342,0.107,2H11c-1.103,0-2-0.897-2-2    S9.897,18,11,18z M11.399,24h2.033c1.636,7.599,7.83,13.504,15.568,14.739v2.028C20.237,39.5,13.087,32.685,11.399,24z M35,47v2    h-6v-2H35z M48.829,61H15.171c0.413-1.164,1.525-2,2.829-2h28C47.304,59,48.416,59.836,48.829,61z M29,57v-6h6v6H29z M31,45    v-6.051C31.333,38.967,31.662,39,32,39s0.667-0.033,1-0.051V45H31z"/>
		<rect x="29" y="21.172" transform="matrix(0.7071 -0.7071 0.7071 0.7071 -8.1838 28.2426)" width="2" height="5.657"/>
		<rect x="32" y="13.929" transform="matrix(0.7071 -0.7071 0.7071 0.7071 -5.1838 29.4853)" width="2" height="14.142"/>
		<rect x="35" y="15.172" transform="matrix(0.7071 -0.7071 0.7071 0.7071 -2.1838 30.7279)" width="2" height="5.657"/>
	</g>
</g>
</svg>
