<?xml version="1.0" encoding="iso-8859-1"?>
<!-- Generator: Adobe Illustrator 22.0.0, SVG Export Plug-In . SVG Version: 6.00 Build 0)  -->
<svg xmlns="http://www.w3.org/2000/svg" xmlns:xlink="http://www.w3.org/1999/xlink" version="1.1" id="Layer_1_1_" x="0px" y="0px" viewBox="0 0 64 64" style="enable-background:new 0 0 64 64;" xml:space="preserve" width="512" height="512">
<g>
	<g>
		<rect x="24" y="52" style="fill:#F0BC5E;" width="16" height="10"/>
	</g>
	<g>
		<path style="fill:#F0BC5E;" d="M43.652,7.176l-1.069-1.604C40.674,2.709,37.48,1,34.041,1c-5.459,0-10.745,1.601-15.286,4.628    C17.03,6.777,16,8.702,16,10.775c0,0.956,0.226,1.913,0.653,2.767C17.534,15.305,18,17.278,18,19.248V21l0.526,1.053    C19.212,20.833,20.502,20,22,20v-3h2.384c5.025,0,9.997-1.021,14.616-3l3,3v3c1.521,0,2.828,0.859,3.505,2.11l0.476-0.914    l0.247-1.236C46.74,17.399,47,14.775,47,12.162C47,9.96,45.669,7.999,43.652,7.176z"/>
	</g>
	<g>
		<circle cx="37" cy="23" r="1"/>
		<circle cx="27" cy="23" r="1"/>
		<path d="M56,52h-2v-4.589c0-3.079-1.974-5.764-4.912-6.681L38,37.265v-2.057c2.21-1.445,3.864-3.663,4.589-6.267    C45.066,28.645,47,26.555,47,24c0-2.414-1.721-4.434-4-4.899v-2.515l-3.771-3.771l-0.623,0.267C34.086,15.018,29.302,16,24.384,16    H21v3.101c-2.279,0.465-4,2.484-4,4.899c0,2.555,1.934,4.645,4.411,4.94c0.724,2.605,2.379,4.822,4.589,6.267v2.057L14.913,40.73    C11.974,41.647,10,44.332,10,47.411V52H8v6h2v5h44v-5h2V52z M45,24c0,1.317-0.859,2.427-2.042,2.829C42.979,26.554,43,26.28,43,26    v-4.816C44.161,21.598,45,22.698,45,24z M19,24c0-1.302,0.839-2.402,2-2.816V26c0,0.28,0.021,0.554,0.042,0.829    C19.859,26.427,19,25.317,19,24z M23,26v-8h1.384c4.963,0,9.798-0.948,14.383-2.818L41,17.414V26c0,4.963-4.038,9-9,9    S23,30.963,23,26z M32,37c1.412,0,2.758-0.277,4-0.764v1.283l-4,3.201l-4-3.201v-1.283C29.242,36.723,30.588,37,32,37z M12,47.411    c0-2.199,1.41-4.116,3.509-4.772l11.282-3.525L32,43.28l5.209-4.167l11.282,3.525C50.59,43.295,52,45.212,52,47.411V52h-7v-5h-2    v14h-2V51H23v10h-2V47h-2v5h-7V47.411z M29,53h2v8h-2V53z M27,61h-2v-8h2V61z M33,53h2v8h-2V53z M37,53h2v8h-2V53z M10,54h9v2h-9    V54z M12,58h7v3h-7V58z M52,61h-7v-3h7V61z M54,56h-9v-2h9V56z"/>
		<path d="M37,29c0-1.654-1.346-3-3-3h-4c-1.654,0-3,1.346-3,3v3h10V29z M35,30h-6v-1c0-0.552,0.449-1,1-1h4c0.551,0,1,0.448,1,1V30    z"/>
	</g>
</g>
</svg>
