<?xml version="1.0" encoding="iso-8859-1"?>
<!-- Generator: Adobe Illustrator 22.0.0, SVG Export Plug-In . SVG Version: 6.00 Build 0)  -->
<svg xmlns="http://www.w3.org/2000/svg" xmlns:xlink="http://www.w3.org/1999/xlink" version="1.1" id="Layer_1_1_" x="0px" y="0px" viewBox="0 0 64 64" style="enable-background:new 0 0 64 64;" xml:space="preserve" width="512" height="512">
<g>
	<g>
		<path style="fill:#F0BC5E;" d="M38,56c0,0-3,1-6,1s-6-1-6-1v-4c0,0,3,1,6,1s6-1,6-1V56z"/>
	</g>
	<path d="M39,40v2c0,0.552-0.448,1-1,1H26c-0.552,0-1-0.448-1-1v-2h-2v2c0,1.654,1.346,3,3,3h0.72l-1.689,6.758L25,60   c0,1.654,1.346,3,3,3h8c1.654,0,3-1.346,3-3v-8l-1.724-7H38c1.654,0,3-1.346,3-3v-2H39z M37,52.123V60c0,0.552-0.448,1-1,1h-8   c-0.552,0-1-0.448-1-1v-7.877L28.78,45h6.439L37,52.123z"/>
	<path d="M52.074,1H11.926L14,30v4h2l-0.002-3H48v3h2l-0.003-3.929L52.074,1z M23.354,6.929L21.36,7.071L22.926,29h-2.996L18.074,3   h2.996l0.148,2.071l1.994-0.143L23.073,3h2.962l0.929,26h-2.033L23.354,6.929z M28.036,3H31v26h-2.035L28.036,3z M33,3h2.964   l-0.929,26H33V3z M37.965,3h2.962l-1.857,26h-2.033L37.965,3z M16.069,3l1.857,26h-1.996L14.074,3H16.069z M48.071,29h-1.998   l0.138-1.929l-1.994-0.143L44.069,29h-2.996l1.857-26h2.996L44.36,24.929l1.994,0.143L47.931,3h1.995L48.071,29z"/>
	<g>
		<path style="fill:#F0BC5E;" d="M50,41H14c-1.654,0-3-1.346-3-3v-2c0-1.654,1.346-3,3-3h36c1.654,0,3,1.346,3,3v2    C53,39.654,51.654,41,50,41z"/>
	</g>
</g>
</svg>
