<?xml version="1.0" encoding="iso-8859-1"?>
<!-- Generator: Adobe Illustrator 22.0.0, SVG Export Plug-In . SVG Version: 6.00 Build 0)  -->
<svg xmlns="http://www.w3.org/2000/svg" xmlns:xlink="http://www.w3.org/1999/xlink" version="1.1" id="Layer_1_1_" x="0px" y="0px" viewBox="0 0 64 64" style="enable-background:new 0 0 64 64;" xml:space="preserve" width="512" height="512">
<g>
	<g>
		
			<rect x="14.05" y="16.879" transform="matrix(0.7071 -0.7071 0.7071 0.7071 -7.8701 19)" style="fill:#F0BC5E;" width="9.899" height="4.243"/>
	</g>
	<g>
		
			<rect x="6.05" y="8.879" transform="matrix(0.7071 -0.7071 0.7071 0.7071 -4.5563 11)" style="fill:#F0BC5E;" width="9.899" height="4.243"/>
	</g>
	<path d="M53,28c-3.309,0-6,2.691-6,6s2.691,6,6,6s6-2.691,6-6S56.309,28,53,28z M53,38c-2.206,0-4-1.794-4-4s1.794-4,4-4   s4,1.794,4,4S55.206,38,53,38z"/>
	<polygon points="32.422,26.836 33.836,25.422 9.414,1 1,1 1,9.414 25.293,33.707 25.69,34.082 26.216,33.977 26.009,32.991    26.707,32.293 3,8.586 3,4.414 25.293,26.707 26.707,25.293 4.414,3 8.586,3  "/>
	<g>
		<path d="M30,53c0,3.309,2.691,6,6,6s6-2.691,6-6s-2.691-6-6-6S30,49.691,30,53z M40,53c0,2.206-1.794,4-4,4s-4-1.794-4-4    s1.794-4,4-4S40,50.794,40,53z"/>
		<path d="M63,19h-2v1.528c0,2.12-0.387,4.241-1.122,6.232C58.084,25.055,55.665,24,53,24c-3.084,0-5.844,1.405-7.68,3.606    L34.142,26.01l-0.283,1.98l10.246,1.463c-0.502,0.977-0.844,2.047-0.999,3.177l-5.237-0.655l-5.239,2.096l0.019,0.047l-0.447,0.1    l1.994,8.954c-1.224,0.224-2.366,0.674-3.392,1.302l-1.858-9.662l-1.965,0.377l2.049,10.656C27.164,47.662,26,50.196,26,53    c0,5.514,4.486,10,10,10s10-4.486,10-10c0-5.443-4.375-9.877-9.792-9.989l-1.68-7.545l3.604-1.441l4.9,0.612    C43.363,39.854,47.701,44,53,44c5.514,0,10-4.486,10-10c0-2.035-0.614-3.927-1.662-5.508C62.426,25.988,63,23.257,63,20.528V19z     M44,53c0,4.411-3.589,8-8,8s-8-3.589-8-8s3.589-8,8-8S44,48.589,44,53z M53,42c-4.411,0-8-3.589-8-8s3.589-8,8-8s8,3.589,8,8    S57.411,42,53,42z"/>
	</g>
	<g>
		<path style="fill:#F0BC5E;" d="M30,36c-3.309,0-6-2.691-6-6s2.691-6,6-6s6,2.691,6,6S33.309,36,30,36z"/>
	</g>
	<g>
		<rect x="28.972" y="28.944" width="2" height="2"/>
	</g>
</g>
</svg>
