<?xml version="1.0" encoding="iso-8859-1"?>
<!-- Generator: Adobe Illustrator 22.0.0, SVG Export Plug-In . SVG Version: 6.00 Build 0)  -->
<svg xmlns="http://www.w3.org/2000/svg" xmlns:xlink="http://www.w3.org/1999/xlink" version="1.1" id="Layer_1_1_" x="0px" y="0px" viewBox="0 0 64 64" style="enable-background:new 0 0 64 64;" xml:space="preserve" width="512" height="512">
<g>
	<g>
		<path style="fill:#F0BC5E;" d="M35,53v-2.083c0-1.379,0.365-2.687,1-3.836V27H2v28h29.76c0.72-1.075,1.89-1.818,3.24-1.968V53z"/>
	</g>
	<g>
		<path d="M57.983,48.431c-0.179-5.121-2.748-9.888-6.963-12.838l-4.637-3.245l-1.256,5.021c-0.592,2.366-2.41,4.272-4.747,4.973    c-1.288,0.386-2.428,1.039-3.38,1.882V24c0-2.757-2.243-5-5-5v-3c0-1.654-1.346-3-3-3h-1V4c0-1.654-1.346-3-3-3H13    c-1.654,0-3,1.346-3,3v9H9c-1.654,0-3,1.346-3,3v3c-2.757,0-5,2.243-5,5v34c0,2.757,2.243,5,5,5h26    c0.585,0,1.159-0.111,1.702-0.308C34.267,62.888,34.87,63,35.5,63h20c4.136,0,7.5-3.364,7.5-7.5    C63,52.235,60.9,49.459,57.983,48.431z M12,4c0-0.552,0.448-1,1-1h12c0.552,0,1,0.448,1,1v9h-2V7c0-1.103-0.897-2-2-2h-6    c-1.103,0-2,0.897-2,2v6h-2V4z M22,13h-6V7h6V13z M8,16c0-0.552,0.448-1,1-1h20c0.552,0,1,0.448,1,1v3H8V16z M3,58V24    c0-1.654,1.346-3,3-3h26c1.654,0,3,1.346,3,3v22.781c-0.643,1.244-1,2.652-1,4.136v1.296c-2.305,0.655-4,2.775-4,5.287    c0,1.328,0.474,2.548,1.261,3.5H6C4.346,61,3,59.654,3,58z M55.5,61h-20c-1.93,0-3.5-1.57-3.5-3.5s1.57-3.5,3.5-3.5H44v-2h-8    v-1.083c0-3.095,1.991-5.771,4.954-6.659c3.009-0.902,5.352-3.356,6.112-6.404l0.551-2.201l2.256,1.579    c3.567,2.497,5.772,6.48,6.067,10.791C55.794,48.014,55.649,48,55.5,48H48v2h7.5c3.032,0,5.5,2.468,5.5,5.5S58.532,61,55.5,61z"/>
		<rect x="52" y="52" width="2" height="2"/>
		<path d="M38,50.917h2c0-1.253,1.026-2.58,2.288-2.959l-0.576-1.916C39.596,46.678,38,48.773,38,50.917z"/>
		<path d="M56.196,52.069C55.967,52.023,55.732,52,55.5,52v2c0.104,0,0.206,0.011,0.302,0.03C56.496,54.171,57,54.789,57,55.5    c0,0.827-0.673,1.5-1.5,1.5H44v2h11.5c1.93,0,3.5-1.57,3.5-3.5C59,53.842,57.822,52.398,56.196,52.069z"/>
		<rect x="18" y="9" width="2" height="2"/>
		<path d="M19,31c-5.514,0-10,4.486-10,10s4.486,10,10,10s10-4.486,10-10S24.514,31,19,31z M19,49c-4.411,0-8-3.589-8-8s3.589-8,8-8    s8,3.589,8,8S23.411,49,19,49z"/>
		<rect x="14" y="40" width="10" height="2"/>
		<rect x="15" y="44" width="8" height="2"/>
	</g>
</g>
</svg>
