<?xml version="1.0" encoding="iso-8859-1"?>
<!-- Generator: Adobe Illustrator 22.0.0, SVG Export Plug-In . SVG Version: 6.00 Build 0)  -->
<svg xmlns="http://www.w3.org/2000/svg" xmlns:xlink="http://www.w3.org/1999/xlink" version="1.1" id="Layer_1_1_" x="0px" y="0px" viewBox="0 0 64 64" style="enable-background:new 0 0 64 64;" xml:space="preserve" width="512" height="512">
<g>
	<g>
		<polygon style="fill:#F0BC5E;" points="31.381,43 25,50.882 22,47.176 27,41   "/>
	</g>
	<g>
		<polygon style="fill:#F0BC5E;" points="28,62 12.619,43 17,41 34,62   "/>
	</g>
	<g>
		<polygon style="fill:#F0BC5E;" points="60.571,44 61.429,32 44.571,32 45.429,44   "/>
	</g>
	<g>
		<path d="M38.214,43.685L28,40.279v-2.072c2.21-1.445,3.864-3.663,4.589-6.267C35.066,31.645,37,29.555,37,27v-4.444    c0.659-1.775,1-3.642,1-5.556c0-8.822-7.178-16-16-16S6,8.178,6,17c0,1.914,0.342,3.781,1,5.557V27    c0,2.555,1.934,4.645,4.411,4.94c0.724,2.605,2.379,4.822,4.589,6.267v2.072L5.787,43.685C2.923,44.638,1,47.307,1,50.324V63h42    V50.324C43,47.307,41.077,44.638,38.214,43.685z M32.958,29.829C32.979,29.554,33,29.28,33,29v-4.816c1.161,0.414,2,1.514,2,2.816    C35,28.317,34.141,29.427,32.958,29.829z M22,3c7.174,0,13.097,5.426,13.9,12.388c-1.238-3.056-3.463-5.682-6.398-7.38L28.5,9.738    C32.509,12.059,35,16.373,35,21v2.026c-0.584-0.442-1.257-0.773-2-0.924V19h-2v2c-1.422,0-2.833-0.348-4.097-0.992    c0.919-0.497,1.818-1.037,2.678-1.653l-1.163-1.627C24.511,19.523,19.906,21,15.101,21H13v-2h-2v3.101    c-0.743,0.152-1.416,0.482-2,0.924V21c0-4.626,2.49-8.94,6.5-11.261l-1.002-1.73c-2.934,1.698-5.16,4.324-6.397,7.38    C8.903,8.426,14.826,3,22,3z M9,27c0-1.302,0.839-2.402,2-2.816V29c0,0.28,0.021,0.554,0.042,0.829C9.859,29.427,9,28.317,9,27z     M13,29v-6h2.101c3.358,0,6.623-0.672,9.658-1.953C26.585,22.304,28.781,23,31,23v6c0,4.963-4.038,9-9,9S13,33.963,13,29z M22,40    c1.412,0,2.758-0.277,4-0.764v1.41l-4,4.941l-4-4.941v-1.41C19.242,39.723,20.588,40,22,40z M3,50.324    c0-2.155,1.374-4.062,3.419-4.743l10.24-3.413L31.904,61H10.441C9.513,59.938,9,58.596,9,57.172v-0.104    c0-1.154,0.338-2.272,0.979-3.233C10.647,52.832,11,51.666,11,50.462V49H9v1.462c0,0.809-0.237,1.591-0.685,2.263    C7.455,54.015,7,55.517,7,57.067v0.104C7,58.536,7.352,59.844,8.003,61H3V50.324z M41,61h-5.003    C36.648,59.844,37,58.536,37,57.172v-0.104c0-1.551-0.455-3.053-1.315-4.343C35.237,52.053,35,51.271,35,50.462V49h-2v1.462    c0,1.204,0.353,2.37,1.021,3.372C34.662,54.795,35,55.913,35,57.067v0.104c0,1.176-0.347,2.298-0.99,3.251L23.287,47.177    l4.055-5.009l10.24,3.413C39.626,46.263,41,48.169,41,50.324V61z"/>
		<circle cx="27" cy="26" r="1"/>
		<circle cx="17" cy="26" r="1"/>
		<path d="M26,31h-2c0,1.103-0.897,2-2,2s-2-0.897-2-2h-2c0,2.206,1.794,4,4,4S26,33.206,26,31z"/>
		<path d="M25.714,8.538l0.571-1.916c-2.768-0.826-5.805-0.826-8.572,0l0.571,1.916C20.682,7.823,23.318,7.823,25.714,8.538z"/>
		<path d="M63,19H43l0.002,5.071l1.98,27.723C44.383,52.343,44,53.125,44,54c0,0.883,0.391,1.67,1,2.22V61c0,1.103,0.897,2,2,2h12    c1.103,0,2-0.897,2-2v-4.78c0.609-0.549,1-1.337,1-2.22c0-0.875-0.383-1.657-0.983-2.205L63,24V19z M49,23v-2h3v2H49z M54,21h3v2    h-3V21z M59,21h2l0.001,2H59V21z M47,21v2h-2v-2H47z M60,54c0,0.552-0.449,1-1,1H47c-0.551,0-1-0.448-1-1s0.449-1,1-1h12    C59.551,53,60,53.448,60,54z M54.722,57c-0.347,0.595-0.985,1-1.722,1s-1.375-0.405-1.722-1H54.722z M59,61H47v-4h2.142    c0.447,1.721,2,3,3.858,3s3.411-1.279,3.858-3H59V61z M59,51H47c-0.023,0-0.045,0.006-0.068,0.007L45.072,25h15.854l-1.858,26.007    C59.045,51.006,59.023,51,59,51z"/>
		<rect x="48" y="35" width="10" height="2"/>
		<rect x="48" y="39" width="4" height="2"/>
		<rect x="54" y="39" width="4" height="2"/>
	</g>
</g>
</svg>
