<?xml version="1.0" encoding="iso-8859-1"?>
<!-- Generator: Adobe Illustrator 22.0.0, SVG Export Plug-In . SVG Version: 6.00 Build 0)  -->
<svg xmlns="http://www.w3.org/2000/svg" xmlns:xlink="http://www.w3.org/1999/xlink" version="1.1" id="Layer_1_1_" x="0px" y="0px" viewBox="0 0 64 64" style="enable-background:new 0 0 64 64;" xml:space="preserve" width="512" height="512">
<g>
	<g>
		<path style="fill:#F0BC5E;" d="M11.237,41.849C11.082,42.877,11,43.929,11,45c0,7.001,3.439,13.184,8.706,17h24.589    C49.561,58.184,53,52.001,53,45c0-0.677-0.044-1.344-0.106-2.004C45.852,42.949,30.967,38,24,38    C17.801,38,12.396,41.131,11.237,41.849z"/>
	</g>
	<g>
		<path d="M42,25.442V23c0-1.103-0.897-2-2-2h-2v-6.808l0.726-1.815l1.416,6.369L50,22.443V18.52l-5.076-4.062L44.18,10H48    c1.103,0,2-0.897,2-2V3c0-1.103-0.897-2-2-2H20.586l-7.672,7.672C12.333,9.253,12,10.057,12,10.879C12,12.6,13.4,14,15.121,14    h0.378c0.479,0,0.962-0.113,1.396-0.329l3.137-1.569L26,14.659V21h-2c-1.103,0-2,0.897-2,2v2.442C14.691,29.189,10,36.776,10,45    c0,7.015,3.409,13.673,9.119,17.81L19.382,63h25.236l0.263-0.19C50.591,58.673,54,52.015,54,45C54,36.776,49.309,29.189,42,25.442    z M40,25h-3v-2h3V25z M31,23v2h-2v-2H31z M33,23h2v2h-2V23z M43.076,15.542L48,19.48v0.076l-6.142-2.303L40.247,10h1.906    L43.076,15.542z M48,8h-4V3h4V8z M19.968,9.898l-3.965,1.982C15.847,11.959,15.672,12,15.499,12h-0.378    C14.503,12,14,11.497,14,10.879c0-0.295,0.119-0.584,0.328-0.793L21.414,3H42v5h-3.677l-2,5h-9.118L19.968,9.898z M28,15h8v6h-8    V15z M27,23v2h-3v-2H27z M43.966,61H20.034C14.997,57.227,12,51.27,12,45c0-7.632,4.438-14.673,11.325-18H31v4    c0,9.888,3.268,19.689,9.2,27.6l1.6-1.199C36.125,49.834,33,40.458,33,31v-4h7.675C47.562,30.327,52,37.368,52,45    C52,51.27,49.003,57.227,43.966,61z"/>
		<path d="M21.409,30.475l1.182,1.613c0.608-0.445,1.255-0.851,1.921-1.205l-0.939-1.766C22.822,29.517,22.095,29.973,21.409,30.475    z"/>
		<path d="M14,45h2c0-4.185,1.716-8.303,4.708-11.298l-1.416-1.414C15.929,35.656,14,40.289,14,45z"/>
	</g>
</g>
</svg>
