<?xml version="1.0" encoding="iso-8859-1"?>
<!-- Generator: Adobe Illustrator 22.0.0, SVG Export Plug-In . SVG Version: 6.00 Build 0)  -->
<svg xmlns="http://www.w3.org/2000/svg" xmlns:xlink="http://www.w3.org/1999/xlink" version="1.1" id="Layer_1_1_" x="0px" y="0px" viewBox="0 0 64 64" style="enable-background:new 0 0 64 64;" xml:space="preserve" width="512" height="512">
<g>
	<g>
		<rect x="45" y="43" style="fill:#F0BC5E;" width="8" height="5"/>
	</g>
	<g>
		<rect x="18" y="5" style="fill:#F0BC5E;" width="6" height="10"/>
	</g>
	<g>
		<rect x="8" y="5" style="fill:#F0BC5E;" width="6" height="10"/>
	</g>
	<g>
		<rect x="15" y="43" width="2" height="2"/>
		<path d="M56,47h-2v-5c0-2.414-1.721-4.434-4-4.899V35h2v-2h-2v-2h2v-2h-2v-2h2v-2h-2v-2h2v-2h-2V11c0-5.514-4.486-10-10-10    S30,5.486,30,11v43.5c0,3.584-2.916,6.5-6.5,6.5c-2.652,0-4.998-1.626-5.992-4H19v-4.518c1.156-0.408,2.228-1.047,3.154-1.915    C23.963,48.872,25,46.479,25,44V5c0-2.206-1.794-4-4-4h-4v28.223l0.33,0.298C17.762,29.91,18,30.436,18,31s-0.238,1.09-0.67,1.479    L17,32.777v6.324C16.677,39.035,16.342,39,16,39s-0.677,0.035-1,0.101v-6.324l-0.33-0.298C14.238,32.09,14,31.564,14,31    s0.238-1.09,0.67-1.479L15,29.223V1h-4C8.794,1,7,2.794,7,5v38.726c0,4.015,2.496,7.471,6,8.746V57h2.377    c1.083,3.521,4.375,6,8.123,6c4.687,0,8.5-3.813,8.5-8.5V11c0-4.411,3.589-8,8-8s8,3.589,8,8v10h-2v2h2v2h-2v2h2v2h-2v2h2v2h-2v2    h2v2.101c-2.279,0.465-4,2.484-4,4.899v5h-2v2h3v4h2v-4h4v4h2v-4h3V47z M19,44c0,1.654-1.346,3-3,3s-3-1.346-3-3s1.346-3,3-3    S19,42.346,19,44z M9,43.726V5c0-1.103,0.897-2,2-2h2v2h-2v2h2v21.37c-0.64,0.729-1,1.664-1,2.63s0.36,1.901,1,2.63v6.396    c-1.207,0.914-2,2.348-2,3.974c0,2.757,2.243,5,5,5s5-2.243,5-5c0-1.627-0.793-3.061-2-3.974V33.63c0.64-0.729,1-1.664,1-2.63    s-0.36-1.901-1-2.63V7h2V5h-2V3h2c1.103,0,2,0.897,2,2v39c0,1.956-0.786,3.77-2.214,5.108c-1.426,1.337-3.29,2.009-5.254,1.876    C11.869,50.747,9,47.559,9,43.726z M15,52.934c0.134,0.015,0.267,0.038,0.403,0.047c0.203,0.013,0.404,0.02,0.605,0.02    c0.334,0,0.664-0.023,0.992-0.059V55h-2V52.934z M46,42c0-1.654,1.346-3,3-3s3,1.346,3,3v5h-6V42z"/>
	</g>
</g>
</svg>
