<?xml version="1.0" encoding="iso-8859-1"?>
<!-- Generator: Adobe Illustrator 22.0.0, SVG Export Plug-In . SVG Version: 6.00 Build 0)  -->
<svg xmlns="http://www.w3.org/2000/svg" xmlns:xlink="http://www.w3.org/1999/xlink" version="1.1" id="Layer_1_1_" x="0px" y="0px" viewBox="0 0 64 64" style="enable-background:new 0 0 64 64;" xml:space="preserve" width="512" height="512">
<g>
	<g>
		<path style="fill:#F0BC5E;" d="M58.688,32.726l-2.565-1.282c-1.579-0.79-2.895-2.008-3.802-3.521    c-0.864-1.44-1.321-3.09-1.321-4.77V20C51,9.523,42.477,1,32,1S13,9.523,13,20v3.152c0,1.68-0.457,3.329-1.321,4.77    c-0.907,1.514-2.223,2.731-3.802,3.521l-2.565,1.282l1.446,1.446c2.15,2.15,4.918,3.459,7.904,3.761    c-0.71,1.876-1.946,3.529-3.562,4.741l-1.793,1.347l2.188,1.562c3.13,2.236,6.569,4.029,10.215,5.367l1.141-0.785    C24.822,48.81,26,46.571,26,44.179v0c0-0.781-0.126-1.556-0.373-2.297L24,37h0.081C21.584,34.801,20,31.589,20,28V18c0,0,4,2,12,2    s12-2,12-2v10c0,3.589-1.584,6.801-4.081,9H40l-1.627,4.882C38.126,42.622,38,43.398,38,44.179v0c0,2.392,1.178,4.631,3.149,5.986    l1.141,0.785c3.646-1.339,7.085-3.131,10.215-5.367l2.188-1.562l-1.794-1.347c-1.614-1.212-2.851-2.865-3.561-4.741    c2.986-0.302,5.754-1.61,7.904-3.761L58.688,32.726z"/>
	</g>
	<g>
		<path d="M41,28v-2h-2v2c0,3.859-3.14,7-7,7v2C36.962,37,41,32.963,41,28z"/>
		<rect x="39" y="22" width="2" height="2"/>
		<path d="M52.094,56.477l-10.379-7.136C40.015,48.172,39,46.242,39,44.179c0-0.675,0.108-1.341,0.321-1.98l1.585-4.754    C43.42,35.072,45,31.721,45,28l-0.003-11.605l-1.441,0.71C43.517,17.123,39.618,19,32,19s-11.517-1.877-11.553-1.895L19,16.382V28    c0,3.721,1.58,7.072,4.094,9.444l1.585,4.754c0.213,0.64,0.321,1.306,0.321,1.98c0,2.063-1.015,3.993-2.715,5.162l-10.379,7.136    C10.086,57.728,9,59.792,9,62v1h46v-1C55,59.792,53.914,57.728,52.094,56.477z M21,28v-8.537C22.865,20.087,26.526,21,32,21    s9.135-0.913,11-1.537V28c0,6.065-4.935,11-11,11S21,34.065,21,28z M11.107,61c0.251-1.157,0.935-2.19,1.931-2.875l10.379-7.136    C25.661,49.446,27,46.9,27,44.179c0-0.89-0.143-1.769-0.424-2.613l-0.702-2.105C27.701,40.441,29.786,41,32,41    s4.299-0.559,6.126-1.54l-0.702,2.105C37.143,42.41,37,43.289,37,44.179c0,2.722,1.339,5.268,3.583,6.811l10.379,7.136    c0.997,0.685,1.68,1.718,1.931,2.875H11.107z"/>
	</g>
</g>
</svg>
