<svg width="20" height="20" viewBox="0 0 20 20" fill="#f1f1f1" xmlns="http://www.w3.org/2000/svg">
<path fill-rule="evenodd" clip-rule="evenodd" d="M6.22083 0.888252C7.19833 0.843252 7.51 0.833252 10 0.833252C12.49 0.833252 12.8017 0.844085 13.7783 0.888252C14.755 0.932419 15.4217 1.08825 16.005 1.31409C16.6158 1.54492 17.17 1.90575 17.6283 2.37242C18.095 2.82992 18.455 3.38325 18.685 3.99492C18.9117 4.57825 19.0667 5.24492 19.1117 6.21992C19.1567 7.19909 19.1667 7.51075 19.1667 9.99992C19.1667 12.4899 19.1558 12.8016 19.1117 13.7791C19.0675 14.7541 18.9117 15.4208 18.685 16.0041C18.455 16.6158 18.0944 17.1701 17.6283 17.6283C17.17 18.0949 16.6158 18.4549 16.005 18.6849C15.4217 18.9116 14.755 19.0666 13.78 19.1116C12.8017 19.1566 12.49 19.1666 10 19.1666C7.51 19.1666 7.19833 19.1558 6.22083 19.1116C5.24583 19.0674 4.57917 18.9116 3.99583 18.6849C3.3841 18.4549 2.82985 18.0943 2.37167 17.6283C1.90532 17.1705 1.54443 16.6165 1.31417 16.0049C1.08833 15.4216 0.933333 14.7549 0.888333 13.7799C0.843333 12.8008 0.833333 12.4891 0.833333 9.99992C0.833333 7.50992 0.844167 7.19825 0.888333 6.22159C0.9325 5.24492 1.08833 4.57825 1.31417 3.99492C1.54477 3.38332 1.90593 2.82935 2.3725 2.37159C2.83003 1.90534 3.38373 1.54445 3.995 1.31409C4.57833 1.08825 5.245 0.933252 6.22 0.888252H6.22083ZM13.7042 2.53825C12.7375 2.49409 12.4475 2.48492 10 2.48492C7.5525 2.48492 7.2625 2.49409 6.29583 2.53825C5.40167 2.57909 4.91667 2.72825 4.59333 2.85409C4.16583 3.02075 3.86 3.21825 3.53917 3.53909C3.23504 3.83496 3.00098 4.19515 2.85417 4.59325C2.72833 4.91659 2.57917 5.40159 2.53833 6.29575C2.49417 7.26242 2.485 7.55242 2.485 9.99992C2.485 12.4474 2.49417 12.7374 2.53833 13.7041C2.57917 14.5983 2.72833 15.0833 2.85417 15.4066C3.00083 15.8041 3.235 16.1649 3.53917 16.4608C3.835 16.7649 4.19583 16.9991 4.59333 17.1458C4.91667 17.2716 5.40167 17.4208 6.29583 17.4616C7.2625 17.5058 7.55167 17.5149 10 17.5149C12.4483 17.5149 12.7375 17.5058 13.7042 17.4616C14.5983 17.4208 15.0833 17.2716 15.4067 17.1458C15.8342 16.9791 16.14 16.7816 16.4608 16.4608C16.765 16.1649 16.9992 15.8041 17.1458 15.4066C17.2717 15.0833 17.4208 14.5983 17.4617 13.7041C17.5058 12.7374 17.515 12.4474 17.515 9.99992C17.515 7.55242 17.5058 7.26242 17.4617 6.29575C17.4208 5.40159 17.2717 4.91659 17.1458 4.59325C16.9792 4.16575 16.7817 3.85992 16.4608 3.53909C16.1649 3.23498 15.8048 3.00093 15.4067 2.85409C15.0833 2.72825 14.5983 2.57909 13.7042 2.53825ZM8.82917 12.8258C9.48305 13.0979 10.2111 13.1347 10.8891 12.9297C11.5671 12.7247 12.1528 12.2907 12.5463 11.7018C12.9399 11.1129 13.1167 10.4056 13.0467 9.70084C12.9767 8.99603 12.6642 8.3374 12.1625 7.83742C11.8427 7.51782 11.456 7.2731 11.0303 7.12087C10.6045 6.96865 10.1504 6.91272 9.70041 6.9571C9.25047 7.00148 8.81596 7.14507 8.42817 7.37753C8.04038 7.60999 7.70895 7.92554 7.45775 8.30146C7.20655 8.67738 7.04182 9.10433 6.97543 9.55155C6.90904 9.99878 6.94263 10.4552 7.07378 10.8878C7.20494 11.3205 7.4304 11.7188 7.73393 12.0539C8.03747 12.3889 8.41152 12.6526 8.82917 12.8258ZM6.66833 6.66825C7.10585 6.23073 7.62527 5.88367 8.19692 5.64689C8.76856 5.4101 9.38125 5.28823 10 5.28823C10.6187 5.28823 11.2314 5.4101 11.8031 5.64689C12.3747 5.88367 12.8941 6.23073 13.3317 6.66825C13.7692 7.10577 14.1162 7.62519 14.353 8.19683C14.5898 8.76848 14.7117 9.38117 14.7117 9.99992C14.7117 10.6187 14.5898 11.2314 14.353 11.803C14.1162 12.3747 13.7692 12.8941 13.3317 13.3316C12.4481 14.2152 11.2496 14.7116 10 14.7116C8.75038 14.7116 7.55195 14.2152 6.66833 13.3316C5.78472 12.448 5.28831 11.2495 5.28831 9.99992C5.28831 8.7503 5.78472 7.55187 6.66833 6.66825ZM15.7567 5.98992C15.8651 5.88764 15.9519 5.76465 16.0119 5.62823C16.072 5.49181 16.104 5.34473 16.1062 5.19569C16.1084 5.04666 16.0806 4.89871 16.0246 4.76059C15.9685 4.62248 15.8854 4.49701 15.78 4.39162C15.6746 4.28623 15.5491 4.20305 15.411 4.14702C15.2729 4.09098 15.1249 4.06323 14.9759 4.0654C14.8269 4.06758 14.6798 4.09963 14.5434 4.15967C14.4069 4.2197 14.2839 4.3065 14.1817 4.41492C13.9828 4.62578 13.8739 4.90585 13.8781 5.19569C13.8823 5.48553 13.9993 5.76232 14.2043 5.96729C14.4093 6.17226 14.6861 6.28928 14.9759 6.2935C15.2657 6.29773 15.5458 6.18883 15.7567 5.98992Z" fill="#ffe68f"/>
</svg>
