<svg width="34" height="34" viewBox="0 0 34 34" fill="none" xmlns="http://www.w3.org/2000/svg">
<path d="M14.6259 10.0306C14.6259 8.82852 14.2694 7.65347 13.6016 6.654C12.9338 5.65454 11.9846 4.87555 10.874 4.41555C9.7635 3.95554 8.54149 3.83519 7.36254 4.06969C6.18359 4.3042 5.10066 4.88304 4.25069 5.73302C3.40071 6.58299 2.82187 7.66592 2.58736 8.84487C2.35286 10.0238 2.47321 11.2458 2.93322 12.3564C3.39322 13.4669 4.17221 14.4161 5.17167 15.0839C6.17113 15.7518 7.34619 16.1082 8.54823 16.1082C10.0648 16.1044 11.5246 15.5306 12.6379 14.5007L15.6471 17.2793L15.6668 17.2941L15.6602 17.299L12.6362 20.0875C11.5238 19.0573 10.0644 18.4834 8.54823 18.48C7.34619 18.48 6.17113 18.8364 5.17167 19.5042C4.17221 20.1721 3.39322 21.1213 2.93322 22.2318C2.47321 23.3423 2.35286 24.5644 2.58736 25.7433C2.82187 26.9223 3.40071 28.0052 4.25069 28.8552C5.10066 29.7051 6.18359 30.284 7.36254 30.5185C8.54149 30.753 9.7635 30.6326 10.874 30.1726C11.9846 29.7126 12.9338 28.9336 13.6016 27.9342C14.2694 26.9347 14.6259 25.7597 14.6259 24.5576C14.6259 24.0684 14.5534 23.599 14.4431 23.1444L19.1273 19.8651L25.9247 24.9134C29.568 27.4647 32.1176 23.8214 32.1176 23.8214L14.4431 11.4437C14.5518 10.9891 14.6259 10.5197 14.6259 10.0306V10.0306ZM8.54823 12.9953C8.1589 12.9953 7.77338 12.9186 7.41369 12.7696C7.05399 12.6206 6.72717 12.4022 6.45187 12.1269C6.17657 11.8516 5.95819 11.5248 5.8092 11.1651C5.66021 10.8054 5.58352 10.4199 5.58352 10.0306C5.58352 9.64123 5.66021 9.25571 5.8092 8.89602C5.95819 8.53632 6.17657 8.2095 6.45187 7.9342C6.72717 7.6589 7.05399 7.44052 7.41369 7.29153C7.77338 7.14254 8.1589 7.06586 8.54823 7.06586C9.33452 7.06586 10.0886 7.37821 10.6446 7.9342C11.2006 8.49019 11.5129 9.24427 11.5129 10.0306C11.5129 10.8168 11.2006 11.5709 10.6446 12.1269C10.0886 12.6829 9.33452 12.9953 8.54823 12.9953V12.9953ZM8.54823 27.5223C7.76194 27.5223 7.00786 27.21 6.45187 26.654C5.89588 26.098 5.58353 25.3439 5.58353 24.5576C5.58353 23.7713 5.89588 23.0172 6.45187 22.4613C7.00786 21.9053 7.76194 21.5929 8.54823 21.5929C9.33452 21.5929 10.0886 21.9053 10.6446 22.4613C11.2006 23.0172 11.5129 23.7713 11.5129 24.5576C11.5129 25.3439 11.2006 26.098 10.6446 26.654C10.0886 27.21 9.33452 27.5223 8.54823 27.5223V27.5223ZM32.1176 10.7684C32.1176 10.7684 29.568 7.12515 25.9247 9.67644L20.6459 13.3576L24.5231 16.072L32.1176 10.7684Z" fill="#222222"/>
</svg>
