<svg width="20" height="20" viewBox="0 0 20 20" fill="none" xmlns="http://www.w3.org/2000/svg">
<path d="M19.7025 4.11415C19.0067 4.42248 18.2592 4.63082 17.4733 4.72498C18.2842 4.23981 18.8908 3.4762 19.18 2.57665C18.4182 3.02914 17.5845 3.34765 16.715 3.51832C16.1303 2.89404 15.3559 2.48025 14.5119 2.34121C13.668 2.20217 12.8017 2.34564 12.0477 2.74936C11.2936 3.15308 10.694 3.79445 10.3418 4.5739C9.98961 5.35335 9.90461 6.22727 10.1 7.05998C8.55641 6.98248 7.04636 6.58127 5.66785 5.8824C4.28935 5.18353 3.0732 4.20262 2.09833 3.00332C1.765 3.57832 1.57333 4.24498 1.57333 4.95498C1.57296 5.59415 1.73036 6.22352 2.03157 6.78726C2.33277 7.351 2.76847 7.83168 3.3 8.18665C2.68356 8.16704 2.08073 8.00047 1.54167 7.70082V7.75082C1.54161 8.64727 1.85169 9.51613 2.41932 10.21C2.98695 10.9038 3.77714 11.3799 4.65583 11.5575C4.08399 11.7122 3.48445 11.735 2.9025 11.6242C3.15042 12.3955 3.63333 13.07 4.28364 13.5533C4.93395 14.0365 5.7191 14.3043 6.52917 14.3192C5.15403 15.3987 3.45574 15.9842 1.7075 15.9816C1.39782 15.9817 1.0884 15.9636 0.780834 15.9275C2.5554 17.0685 4.62112 17.674 6.73083 17.6716C13.8725 17.6716 17.7767 11.7566 17.7767 6.62665C17.7767 6.45998 17.7725 6.29165 17.765 6.12498C18.5244 5.57579 19.1799 4.89573 19.7008 4.11665L19.7025 4.11415Z" fill="#ffe68f"/>
</svg>
